<?xml version="1.0" encoding="utf-8"?>
<!-- Generator: Adobe Illustrator 21.0.0, SVG Export Plug-In . SVG Version: 6.00 Build 0)  -->
<svg version="1.1" id="Livello_1" xmlns="http://www.w3.org/2000/svg" xmlns:xlink="http://www.w3.org/1999/xlink" x="0px" y="0px"
	 viewBox="0 0 772 250" style="enable-background:new 0 0 772 250;" xml:space="preserve">
<style type="text/css">
	.st0{fill:#F89C1B;}
	.st1{fill:#006B81;}
	.st2{fill:#057F99;}
	.st3{fill:#3EBCA6;}
	.st4{fill:#FFFFFF;}
</style>
<rect class="st0" width="772" height="250"/>
<path class="st1" d="M642.5,136.6c-7.1,16.6-19.7,48.7-27.6,64.7c-5.1,11.7,18.6,14.8,38.1,3.4c17.3-4.2,39.4-46.6,33.2-49.1
	C673.3,146.9,655.4,139.3,642.5,136.6L642.5,136.6z"/>
<path class="st2" d="M593.8,116.4c-19.4,21-19.3,48.3-10.7,63.9c6.2,13.6,5.7,16.2,17.7,22.3c22.5-6.5,17.6-9.2,25.2-29.4l15.5-36.4
	C626.1,126.6,611.8,120.2,593.8,116.4L593.8,116.4z"/>
<path class="st2" d="M687.9,161.6c-1.5,4.7-4.2,11.7-29.8-10.4c-5.5-4.7-17.6-4.7-20.3-5.2c-6.2-1.1,3.1-28.6,5.1-33.3
	c4.1-9.5-6.2-23.2,7.2-17.5c6.7,2.8,23,11,31,24.7C689,133.6,689.3,156.9,687.9,161.6L687.9,161.6z"/>
<path class="st3" d="M635.5,145.3c-1.3,3.5-13.1-1.5-22.2-4.9c-13.7-5.1-33.6-6.7-33.4-7.5c1.8-8.2,23.2-33.5,44.8-37.4
	c15-2.7,25.9-2.2,24.5,1.5c-1.9,5.5-4.1,13.4-5.2,16.4C643,116,637.8,136.8,635.5,145.3L635.5,145.3z"/>
<path d="M656.9,95.1C656.9,95.1,656.8,95.1,656.9,95.1c-29.1-12.4-63.8,3.5-77.4,35.4c-11.8,27.7-4,59.2,18.4,75
	c0.5,0.4,1.2,0.5,1.8,0.3l10.8-2.9c0.1,0,0.3,0.1,0.5,0.1l3.9,9.4c0.2,0.5,0.6,1,1.2,1.2c0.1,0.1,0.2,0.1,0.4,0.1
	c13.1,3,27.3,0.8,39.8-6.1c12.6-7,22.8-18.4,28.6-32.2C698.4,143.5,685.9,107.5,656.9,95.1z M599.7,201.3
	c-20.1-14.8-26.9-43.6-16.1-69c11.4-26.8,38.7-41.5,63.6-35.7c0,0,0,0.1,0,0.1c-20.9,87-32.5,99.5-35.1,101.3c-0.1,0-0.3,0-0.4,0.1
	l-0.4,0.1c-0.6-0.1-1.2,0.1-1.7,0.5L599.7,201.3z M654.1,203.7c-11.2,6.2-23.8,8.3-35.6,5.9l-3.3-8.1c9.4-7.4,22-43.1,36.6-103.6
	c1.1,0.4,2.2,0.8,3.3,1.2c0,0,0,0,0,0c26.8,11.4,38.3,44.8,25.7,74.5C675.3,186.5,665.8,197.2,654.1,203.7z"/>
<g>
	<path d="M613.9,35c8.8-1,16,1.1,21.2,6.3c5.8,5.8,8.7,14.5,10.1,23c-8.8,1.2-16,5.8-19.1,13c-1.4,3.2-1.8,6.7-1.3,10.2l3.3,4
		c9.6-1.4,19.4-0.4,28.7,3.6c0,0,0,0,0,0c8.6,3.7,15.7,9.4,21.1,16.4l4.6-0.7c2.3-2,4.1-4.4,5.3-7.2c3.2-7.6,1.1-16.5-4.8-24
		c7.4-5.3,16.3-9.8,25-9.6c7.4,0.2,13.8,3.8,19.2,10.9c0.9,1.2,2.7,1.5,4,0.5c1.2-0.9,1.5-2.7,0.5-4c-6.5-8.5-14.4-13-23.6-13.2
		c-8.9-0.2-18.6,3.5-29,11.1c-3.4-3.2-7.6-5.9-12.4-8l0,0c-5.3-2.3-10.8-3.4-15.9-3.5c-1.9-11.8-5.8-20.7-11.8-26.7
		c-6.5-6.5-15.2-9.1-25.8-7.9c-1.5,0.2-2.7,1.6-2.5,3.1C611,34.1,612.4,35.2,613.9,35z"/>
	<path d="M702.5,162.1c6,4.8,8.3,12.1,7.2,22.4c-0.2,1.4,0.9,2.7,2.3,2.9c1.4,0.2,2.7-0.9,2.9-2.3c1.3-12.1-1.8-21.2-9.1-27.1
		c-4.2-3.4-9.6-5.4-15.6-6.5c-0.1,1.8-0.2,3.5-0.4,5.3C695.1,157.7,699.4,159.5,702.5,162.1z"/>
	<path d="M687,128.3c0.6,1.7,1.1,3.5,1.6,5.3c10.3,0.1,18.3,2.3,23.5,6.4c6,4.8,8.3,12.1,7.2,22.4c-0.2,1.4,0.9,2.7,2.3,2.9
		c1.4,0.2,2.7-0.9,2.9-2.3c1.3-12.1-1.8-21.2-9.1-27.1C708.1,130.1,697.7,128.2,687,128.3z"/>
	<path d="M561.2,91.6c1.1,0.9,2.8,0.8,3.7-0.3c6.7-7.9,13.6-11.3,21.1-10.3c7.5,1,15.8,6.5,24.3,16.2c1.7-0.8,3.3-1.6,5-2.3
		c-8.2-9.6-18-17.7-28.6-19.1c-9.4-1.2-18.1,2.8-25.9,12.2C560,89,560.1,90.7,561.2,91.6z"/>
	<path d="M547.9,116c1.1,0.9,2.8,0.8,3.7-0.3c6.7-7.9,13.6-11.3,21.1-10.3c5.3,0.7,10.9,3.7,16.8,8.7c1.1-1.4,2.3-2.7,3.5-4
		c-6-5.2-12.6-9-19.6-9.9c-9.4-1.2-18.1,2.8-25.9,12.2C546.6,113.4,546.7,115.1,547.9,116z"/>
	<path d="M709.9,213.1c1.3-12.1-1.8-21.2-9.1-27.1c-4.7-3.8-10.9-5.9-17.7-6.9c-0.8,1.7-1.8,3.4-2.7,5c7.3,0.8,13.1,2.8,17.1,6
		c6,4.8,8.3,12.1,7.2,22.4c-0.2,1.4,0.9,2.7,2.3,2.9C708.4,215.6,709.7,214.5,709.9,213.1z"/>
	<path d="M579.4,130.8c-5.3-4.1-11.1-7.1-17.1-7.9c-9.4-1.2-18.1,2.8-25.9,12.2c-0.9,1.1-0.8,2.8,0.3,3.7c1.1,0.9,2.8,0.8,3.7-0.3
		c6.7-7.9,13.6-11.3,21.1-10.3c5,0.7,10.3,3.3,15.8,7.9C578,134.3,578.7,132.5,579.4,130.8z"/>
</g>
<g>
	<path class="st4" d="M592.5,167.6c-1.6-0.7-2.2-2.3-1.5-3.8l0-0.1l0.1-0.1c3.9-7,7.2-13.8,10-20.4l3.1-7.3c0.5-1.1,1.4-1.8,2.5-2
		c0.6-1.6,0.8-2.5,0.9-3.1c0.1-0.8-0.1-1.6-0.4-2.5c-0.6-1.3-1.7-2.3-3.4-3c-0.3-0.1-0.7-0.3-1.1-0.4l-0.1,0c-0.2-0.1-1-0.2-2.6,0.4
		c-1.6,0.5-2.8,1.1-3.7,1.6l-0.3,0.2l-0.3,0.1c-0.7,0.2-1.3,0.1-1.9-0.1c0,0,0,0,0,0c-2.1-0.9-1.6-3.3-1.4-4.3l0.1-0.2l0.1-0.2
		c0.8-1.5,2.3-2.9,4.8-4.4c2.4-1.4,5.2-2.1,8.3-2.1c4.6,0,8.8,0.8,12.5,2.4c1.7,0.7,3.1,1.4,4.2,2.2c0.7,0.5,1.2,1.2,1.7,2.4
		c0.8-0.9,2.1-1.2,3.3-0.7l5.5,2.3c1.6,0.7,2.2,2.3,1.5,3.8l-3.8,8.8c-0.7,1.6-2.3,2.2-3.8,1.5l-5.5-2.3c-1.6-0.7-2.2-2.3-1.5-3.8
		l0.1-0.1c-0.7,0-1.5,0.3-2.3,0.9c-0.2,0.2-0.8,1-2.2,4.2c0.8,0.9,0.9,2.1,0.4,3.4l-3.1,7.3c-1.2,2.9-2.5,6.2-3.8,9.7
		c-1.3,3.6-2.3,6.4-2.9,8.5l-1,3.3l0,0.1c-0.7,1.6-2.3,2.2-3.8,1.5L592.5,167.6z"/>
	<path d="M632.3,126.6c0.4,0.2,0.5,0.5,0.4,0.9l-3.8,8.8c-0.2,0.4-0.5,0.5-0.9,0.4l-5.5-2.3c-0.4-0.2-0.5-0.5-0.4-0.9l0.6-1.5
		c-0.4-0.8-0.9-1.3-1.5-1.6c-0.2-0.1-0.3-0.1-0.5-0.1c-1.4-0.2-2.8,0.2-4.3,1.3c-0.7,0.5-1.9,2.7-3.6,6.7l0.7,0.6
		c0.5,0.3,0.6,0.7,0.3,1.3l-3.1,7.3c-1.3,2.9-2.5,6.2-3.9,9.8c-1.3,3.6-2.3,6.5-3,8.6l-1,3.2c-0.2,0.4-0.5,0.5-0.9,0.4l-8.8-3.8
		c-0.4-0.2-0.5-0.5-0.4-0.9c3.9-7.1,7.3-13.9,10.1-20.6l3.1-7.3c0.2-0.5,0.6-0.7,1.1-0.6l0.8,0.1c1-2.2,1.5-3.9,1.6-5.1
		c0.1-1.2-0.1-2.4-0.6-3.6c-0.8-1.8-2.3-3.2-4.5-4.1c-0.4-0.2-0.9-0.3-1.3-0.5c-1-0.3-2.4-0.2-4.1,0.4c-1.7,0.6-3,1.2-4,1.8
		c-0.2,0-0.3,0-0.5,0c-0.3-0.1-0.4-0.7-0.1-1.6c0.5-1.1,1.9-2.2,4-3.5c2.1-1.2,4.5-1.8,7.2-1.8c4.3,0,8.2,0.8,11.7,2.2
		c1.5,0.7,2.8,1.3,3.8,2c0.3,0.2,0.6,0.7,0.9,1.6c0.3,0.8,0.6,1.3,1,1.5c0.6,0.3,1.4,0.2,2.3-0.1l0.3-0.6c0.2-0.4,0.5-0.5,0.9-0.4
		L632.3,126.6 M634,122.5l-5.5-2.3c-1.1-0.5-2.3-0.6-3.3-0.3c-0.3-0.4-0.8-0.9-1.3-1.2l0,0l0,0c-1.3-0.8-2.8-1.6-4.6-2.4
		c-4-1.7-8.5-2.6-13.4-2.6c-3.5,0-6.7,0.8-9.5,2.4c-2.9,1.7-4.7,3.4-5.7,5.3l-0.2,0.4l-0.1,0.4c-1.5,4.9,1.9,6.7,2.6,7
		c0.7,0.3,1.8,0.6,3.3,0.2l0.6-0.2l0.6-0.3c0.5-0.3,1.5-0.8,3.3-1.4c0.8-0.3,1.2-0.3,1.3-0.3c0.3,0.1,0.6,0.2,0.9,0.3
		c1.5,0.6,2,1.4,2.2,1.8c0.2,0.5,0.3,0.9,0.3,1.3c0,0.2-0.1,0.6-0.4,1.5c-1.3,0.5-2.3,1.6-2.9,2.9l-3.1,7.3
		c-2.8,6.5-6.1,13.3-9.9,20.2l-0.1,0.2l-0.1,0.2c-1.1,2.7,0,5.6,2.7,6.7l8.8,3.8c2.7,1.1,5.6,0,6.7-2.7l0.1-0.2l0.1-0.2l1-3.2
		c0.6-2,1.6-4.8,2.9-8.4c1.3-3.5,2.6-6.7,3.8-9.6l3.1-7.3c0.6-1.5,0.6-3,0-4.4c0.1-0.3,0.2-0.5,0.3-0.7c0.5,0.7,1.3,1.4,2.2,1.8
		l5.5,2.3c2.7,1.1,5.6,0,6.7-2.7l3.8-8.8C637.9,126.5,636.7,123.6,634,122.5L634,122.5z"/>
</g>
<g>
	<path class="st4" d="M641.4,189c-0.6-0.3-1.2-0.6-1.8-1c-2.2-1.5-3.6-3.6-4-6.2c-0.5-2.6,0-5,1.5-7.2c1.3-1.9,3-3.2,5.2-3.8
		l8.5-12.4c-0.4-0.9-0.6-1.8-0.8-2.7c-0.7-3.8,0.1-7.2,2.2-10.4c2.2-3.1,5.2-5.1,8.9-5.8c1.6-0.3,3.3-0.3,5.2,0.1l0.6-0.1l0.9,0.6
		c0.6,0.4,1,1,1.1,1.6s0,1.3-0.4,1.9l-3.3,4.7l-1.5,2.3c0.2,0.5,0.5,0.8,0.9,1.2c0.2,0.1,0.3,0.2,0.5,0.3c0.3,0.1,0.6,0.2,0.9,0.2
		l1.5-2.2l1.7-2.3l1.6-2.4c0.7-1,2-1.4,3.2-0.9l0.2,0.1l0.7,0.5l0.2,0.4c1,1.6,1.8,3.4,2.1,5.3c0.7,3.7,0,7.2-2.2,10.4
		c-2.1,3.1-5.1,5.1-8.9,5.8c-0.8,0.1-1.7,0.2-2.9,0.1l-8.5,12.4c0.1,2.2-0.4,4.3-1.7,6.2c-1.5,2.2-3.6,3.5-6.1,4
		C644.9,190,643.1,189.8,641.4,189z M645.2,179.2c-0.1,0-0.2-0.1-0.4,0c-0.2,0-0.3,0.1-0.5,0.3c-0.2,0.3-0.2,0.5-0.2,0.7
		c0,0.2,0.1,0.4,0.3,0.5c0.1,0,0.1,0.1,0.2,0.1c0.1,0,0.2,0.1,0.4,0c0.2,0,0.4-0.1,0.5-0.3c0.1-0.2,0.2-0.4,0.1-0.6
		c0-0.2-0.1-0.4-0.4-0.6C645.4,179.3,645.3,179.3,645.2,179.2z"/>
	<path d="M666.2,141.9l0.1,0.1c0.2,0.1,0.2,0.2,0.1,0.4l-1.7,2.4l-1.6,2.3l-2,3c0.1,1.5,0.8,2.6,2,3.5c0.3,0.2,0.6,0.4,0.9,0.5
		c1,0.4,2,0.5,3.1,0.2l2-2.9l1.7-2.3l1.6-2.4c0.1-0.2,0.3-0.2,0.5-0.1c0,0,0,0,0,0l0.1,0.1c0.9,1.3,1.5,2.8,1.8,4.5
		c0.6,3.2,0,6.1-1.8,8.7c-1.8,2.6-4.3,4.3-7.4,4.8c-0.8,0.2-2,0.2-3.6,0l-9.7,14.2c0.3,2-0.1,3.8-1.3,5.5s-2.7,2.7-4.7,3.1
		c-1.5,0.3-2.8,0.1-4.1-0.4c-0.5-0.2-1-0.5-1.4-0.8c-1.7-1.2-2.8-2.8-3.1-4.8c-0.4-2,0-3.8,1.2-5.5c1.1-1.7,2.7-2.7,4.7-3.2
		l9.7-14.2c-0.6-1.2-1-2.3-1.1-3.3c-0.6-3.2,0-6.1,1.9-8.7c1.8-2.6,4.3-4.3,7.5-4.8c1.4-0.3,3-0.2,4.7,0.2L666.2,141.9 M643.9,182.9
		c0.5,0.2,1.1,0.3,1.7,0.2c0.8-0.2,1.5-0.6,2-1.3c0.5-0.7,0.6-1.5,0.5-2.3c-0.2-0.8-0.6-1.5-1.3-2c-0.2-0.2-0.4-0.3-0.6-0.4
		c-0.5-0.2-1.1-0.3-1.6-0.2c-0.8,0.2-1.5,0.6-1.9,1.3c-0.5,0.7-0.6,1.5-0.5,2.3c0.2,0.8,0.6,1.5,1.3,2
		C643.5,182.7,643.7,182.8,643.9,182.9 M667.3,137.2l-1.1,0.2c-2-0.3-3.8-0.4-5.6,0c-4.4,0.8-7.8,3.1-10.3,6.7
		c-2.5,3.6-3.4,7.7-2.6,12.1c0.1,0.6,0.3,1.3,0.5,2l-7.4,10.9c-2.3,0.9-4.2,2.4-5.6,4.4c-1.8,2.6-2.5,5.7-1.9,8.8s2.3,5.8,5,7.6
		c0.7,0.5,1.4,0.9,2.2,1.2c2.1,0.9,4.4,1.1,6.7,0.7c3.1-0.6,5.8-2.3,7.6-4.9c1.4-2.1,2.1-4.4,2.2-6.8l7.4-10.8
		c0.8,0,1.5-0.1,2.1-0.2c4.4-0.8,7.8-3.1,10.3-6.7c2.5-3.6,3.3-7.7,2.5-12c-0.4-2.2-1.2-4.3-2.5-6.1l-0.5-0.7l-0.7-0.5l-0.1-0.1
		l-0.4-0.3l-0.4-0.2c-1.2-0.5-2.6-0.5-3.7-0.1c0-1.5-0.7-3.1-2.1-4l-0.1-0.1L667.3,137.2L667.3,137.2z"/>
</g>
<g>
	<path d="M50.9,54.1c0.4-0.9,1-1.6,1.9-1.9c0.9-0.4,1.8-0.4,2.7,0c0.9,0.3,1.6,1,2,1.9l9.9,22.5c0.8,1.8,1,3.2,0.6,4.2L59.5,100h7.9
		l9.1-20.7l-9.9-22.5c-0.4-0.9-0.4-1.8,0-2.7c0.3-0.9,1-1.6,1.9-1.9c0.9-0.4,1.8-0.4,2.7,0c0.9,0.3,1.6,1,2,1.9l21.1,47.9
		c0.4,0.9,0.4,1.8,0,2.7c-0.4,0.9-1,1.6-1.9,1.9c-0.9,0.4-1.8,0.4-2.7,0c-0.9-0.3-1.6-1-2-1.9l-7.3-16.5L73,104.6
		c-0.6,1.5-2.3,2.2-5,2.2H54.1c-1.5,0-2.5-0.5-3.1-1.6c-0.6-1-0.6-2.1-0.1-3.3l9.9-22.6l-9.9-22.5C50.5,55.9,50.5,55,50.9,54.1z
		 M94.1,56.8c0.4-0.9,0.4-1.8,0-2.7c-0.4-0.9-1-1.6-1.9-1.9c-0.9-0.4-1.8-0.4-2.7,0c-0.9,0.3-1.6,1-2,1.9l-3.4,7.7l3.9,8.8
		L94.1,56.8z"/>
	<path d="M127.3,65.2c-3.3-4.3-6.8-6.4-10.6-6.4c-2.9,0-5.3,1-7.4,3c-2,2-3.1,4.4-3.1,7.3c0,2.1,0.6,4,1.7,5.7l11.1,12.5
		c0.7,0.7,1,1.5,1,2.4c0,0.9-0.3,1.8-1,2.4c-0.7,0.7-1.5,1-2.5,1c-1,0-1.9-0.4-2.6-1.2l-11.3-12.6c-2.3-3-3.5-6.5-3.5-10.3
		c0-4.6,1.9-8.7,5.6-12.2c3.6-3.3,7.5-5,11.8-5c3.6,0,6.7,0.8,9.3,2.4c2,1.2,4.1,3.3,6.3,6c0.8,1,1.2,1.9,1.2,2.8c0,1-0.3,1.8-1,2.4
		c-0.7,0.7-1.5,1-2.5,1C128.9,66.6,128,66.1,127.3,65.2z M106.2,93.5c3.3,4.3,6.8,6.4,10.5,6.4c2.9,0,5.4-1,7.4-3
		c2-2,3.1-4.4,3.1-7.3c0-2.4-0.6-4.3-1.7-5.7l-11.1-12.5c-0.7-0.7-1-1.5-1-2.4c0-0.9,0.3-1.8,1-2.4c0.7-0.7,1.5-1,2.4-1
		c1,0,1.9,0.4,2.6,1.2l11.3,12.6c2.3,2.7,3.5,6.1,3.5,10.3c0,4.6-1.9,8.6-5.6,12.1c-3.6,3.4-7.5,5.1-11.8,5.1
		c-3.6,0-6.6-0.8-9.3-2.4c-2-1.2-4.1-3.3-6.3-6c-0.8-1-1.2-1.9-1.2-2.8c0-1,0.3-1.8,1-2.4c0.7-0.7,1.5-1,2.5-1
		C104.5,92.1,105.5,92.6,106.2,93.5z"/>
	<path d="M141.4,54.1c0.4-0.9,1-1.6,1.9-1.9c0.9-0.4,1.8-0.4,2.7,0c0.9,0.3,1.6,1,2,1.9l9.9,22.5c0.8,1.8,1,3.2,0.6,4.2l-8.5,19.2
		h7.9l9.1-20.7l-9.9-22.5c-0.4-0.9-0.4-1.8,0-2.7c0.3-0.9,1-1.6,1.9-1.9c0.9-0.4,1.8-0.4,2.7,0c0.9,0.3,1.6,1,2,1.9l21.1,47.9
		c0.4,0.9,0.4,1.8,0,2.7c-0.4,0.9-1,1.6-1.9,1.9c-0.9,0.4-1.8,0.4-2.7,0c-0.9-0.3-1.6-1-2-1.9l-7.3-16.5l-7.3,16.5
		c-0.6,1.5-2.3,2.2-5,2.2h-13.9c-1.5,0-2.5-0.5-3.1-1.6c-0.6-1-0.6-2.1-0.1-3.3l9.9-22.6l-9.9-22.5C141.1,55.9,141.1,55,141.4,54.1z
		 M184.7,56.8c0.4-0.9,0.4-1.8,0-2.7c-0.4-0.9-1-1.6-1.9-1.9c-0.9-0.4-1.8-0.4-2.7,0c-0.9,0.3-1.6,1-2,1.9l-3.4,7.7l3.9,8.8
		L184.7,56.8z"/>
	<path d="M193.4,93.1c-1,0-1.8-0.3-2.4-1c-0.7-0.7-1-1.5-1-2.4V75.9c0-0.9,0.3-1.7,1-2.4c0.7-0.7,1.5-1,2.5-1h27.9
		c1,0,1.8,0.3,2.5,1c0.7,0.7,1,1.5,1,2.4h0v13.7h0c0,0.9-0.3,1.7-1,2.4c-0.7,0.7-1.5,1-2.5,1v0L193.4,93.1L193.4,93.1z M217.8,79.3
		h-20.9v6.9h20.9V79.3z"/>
	<path d="M252.8,51.9c7.7,0,14.2,2.7,19.6,8.1c5.4,5.4,8.1,11.8,8.1,19.4c0,7.6-2.7,14.1-8.2,19.4c-5.4,5.4-12,8.1-19.7,8.1h-17.4
		c-1,0-1.9-0.4-2.5-1.2c-0.6-0.7-0.9-1.6-0.9-2.6V69c0-0.9,0.3-1.7,1-2.4c0.7-0.7,1.5-1,2.5-1h17.6c3.8,0,7.1,1.4,9.8,4.1
		c2.7,2.7,4,5.9,4,9.7c0,3.8-1.4,7-4.1,9.7c-2.7,2.7-6,4-9.9,4h-3.5c-1,0-1.8-0.3-2.4-1c-0.7-0.7-1-1.5-1-2.4V72.5h-7V100h13.9
		c5.8,0,10.7-2,14.8-6c4.1-4,6.1-8.9,6.1-14.6c0-5.7-2-10.5-6.1-14.6c-4.1-4-9-6-14.8-6h-17.4c-1,0-1.8-0.3-2.5-1
		c-0.7-0.7-1-1.5-1-2.4c0-0.9,0.3-1.7,1-2.4c0.7-0.7,1.5-1,2.4-1H252.8z M252.6,86.2c1.9,0,3.6-0.7,4.9-2c1.4-1.3,2.1-2.9,2.1-4.8
		c0-1.9-0.7-3.5-2.1-4.8c-1.4-1.4-3-2-4.9-2V86.2z"/>
	<path d="M294.4,58.7V100h24.4c1,0,1.8,0.3,2.5,1c0.7,0.7,1,1.5,1,2.4c0,0.9-0.3,1.7-1,2.4c-0.7,0.7-1.5,1-2.5,1h-27.8
		c-1,0-1.8-0.3-2.5-1c-0.7-0.7-1-1.5-1-2.4V55.3c0-1,0.3-1.8,1-2.4c0.7-0.7,1.5-1,2.5-1h27.8c1,0,1.8,0.3,2.5,1c0.7,0.7,1,1.5,1,2.4
		c0,0.9-0.3,1.7-1,2.4c-0.7,0.7-1.5,1-2.5,1H294.4z M308.3,75.9c0,0.9-0.3,1.7-1,2.4c-0.7,0.7-1.5,1-2.4,1c-1,0-1.8-0.3-2.5-1
		c-0.7-0.7-1-1.5-1-2.4v-6.7c0-1,0.3-1.8,1-2.5c0.7-0.7,1.5-1.1,2.5-1.1h13.9c0.9,0,1.7,0.3,2.4,1s1,1.5,1,2.4c0,0.9-0.3,1.8-1,2.4
		c-0.7,0.7-1.5,1-2.5,1h-10.4V75.9z M315.3,82.8c0-0.9,0.3-1.7,1-2.4c0.7-0.7,1.5-1,2.4-1c1,0,1.8,0.3,2.4,1c0.7,0.7,1,1.5,1,2.4
		v6.7c0,1-0.3,1.8-0.9,2.5c-0.7,0.7-1.5,1.1-2.5,1.1h-13.9c-0.9,0-1.7-0.3-2.4-1s-1-1.5-1-2.4c0-0.9,0.3-1.7,1-2.4
		c0.7-0.7,1.5-1,2.5-1h10.5V82.8z"/>
	<path d="M332.7,106.8c-1,0-1.9-0.4-2.5-1.1c-0.6-0.7-0.9-1.6-0.9-2.5V55.3c0-0.9,0.3-1.8,1-2.4c0.7-0.7,1.5-1,2.5-1h20.9
		c4.8,0,8.9,1.7,12.3,5c3.4,3.4,5.1,7.4,5.1,12.2c0,1.6-0.2,3.2-0.7,4.8c2.8,3.7,4.2,7.8,4.2,12.4c0,5.7-2,10.6-6.1,14.6
		c-4.1,4-9,6-14.8,6H332.7z M336.2,58.7V100h17.4c3.9,0,7.1-1.3,9.9-4c2.7-2.7,4.1-5.9,4.1-9.7c0-1.9-0.4-3.7-1.2-5.5
		c-3.4,3.7-7.7,5.5-12.8,5.5h-6.9c-1,0-1.9-0.4-2.5-1.1c-0.6-0.7-0.9-1.5-0.9-2.5V68.7c0-0.9,0.4-1.6,1.1-2.2
		c0.7-0.6,1.5-0.9,2.4-0.9h6.9c1,0,1.8,0.3,2.5,1c0.7,0.7,1,1.5,1,2.4c0,0.9-0.3,1.8-1,2.4c-0.7,0.7-1.5,1-2.5,1h-3.4v6.9h3.4
		c2.9,0,5.4-1,7.4-3c2-2,3.1-4.4,3.1-7.3c0-2.4-0.8-4.5-2.3-6.4c-1.5-1.9-3.4-3.1-5.7-3.6c-0.8-0.2-1.7-0.3-2.6-0.3H336.2z"/>
	<path d="M399,89.7c0,0.9-0.3,1.8-1,2.4c-0.7,0.7-1.5,1-2.4,1c-1,0-1.8-0.3-2.5-1c-0.7-0.7-1-1.5-1-2.4V58.7h-7v30.9
		c0,2.8,1,5.3,3.1,7.3c2,2,4.5,3,7.4,3c2.9,0,5.3-1,7.4-3c2-2,3.1-4.4,3.1-7.3V55.3c0-0.9,0.3-1.8,1-2.4c0.7-0.7,1.5-1,2.5-1
		c1,0,1.8,0.3,2.5,1c0.7,0.7,1,1.5,1,2.4v34.4c0,4.7-1.7,8.8-5.1,12.2c-3.4,3.3-7.5,5-12.3,5c-4.8,0-9-1.7-12.4-5
		c-3.4-3.4-5.1-7.4-5.1-12.2V55.3c0-1,0.3-1.8,1-2.4c0.7-0.7,1.5-1,2.5-1h14c1,0,1.8,0.3,2.5,1c0.7,0.6,1,1.5,1,2.5V89.7z"/>
	<path d="M467.4,59.9c0.7,0.7,1,1.5,1,2.4c0,1-0.3,1.8-1,2.4c-0.7,0.7-1.5,1-2.4,1c-1,0-1.8-0.3-2.5-1c-4.1-4-9-6-14.8-6
		c-5.8,0-10.7,2-14.8,6c-4.1,4-6.1,8.9-6.1,14.6c0,5.7,2,10.5,6.1,14.6c4.1,4,9,6,14.8,6c5.2,0,9.8-1.7,13.8-5.2
		c1.4-1.2,2.1-2.3,2.1-3.4v-1.7h-6.7c-2.6,2.3-5.7,3.4-9.2,3.4c-3.9,0-7.1-1.3-9.9-4c-2.7-2.7-4.1-5.9-4.1-9.7c0-3.8,1.4-7,4.1-9.7
		c2.7-2.7,6-4,9.9-4c3.7,0,6.9,1.2,9.5,3.7c0.9,0.9,1.3,1.8,1.3,2.7c0,0.9-0.3,1.8-1,2.4c-0.7,0.7-1.5,1-2.5,1c-1,0-1.9-0.4-2.6-1.1
		c-1.3-1.3-2.9-1.9-4.8-1.9c-1.9,0-3.6,0.7-4.9,2c-1.4,1.3-2.1,2.9-2.1,4.8c0,1.9,0.7,3.5,2.1,4.8c1.3,1.4,3,2,4.9,2
		c1.9,0,3.5-0.6,4.8-1.9c1.1-1,2.2-1.5,3.3-1.5H467c1,0,1.9,0.3,2.5,1c0.6,0.6,1,1.5,1,2.4v17.2c0,0.9-0.3,1.7-1,2.4
		c-0.7,0.7-1.5,1-2.5,1c-1,0-1.8-0.3-2.4-1c-0.7-0.7-1-1.5-1-2.4v-1.5c-4.8,3.3-10.1,4.9-15.9,4.9c-7.7,0-14.3-2.7-19.7-8.1
		c-5.4-5.4-8.2-11.8-8.2-19.4c0-7.6,2.7-14.1,8.2-19.5c5.5-5.4,12-8,19.7-8C455.4,51.9,461.9,54.5,467.4,59.9z"/>
</g>
<g>
	<path d="M51.6,33.4c0,0.6,0.2,1.1,0.6,1.4c0.4,0.3,0.9,0.5,1.5,0.5c0.5,0,1-0.1,1.6-0.4c0.6-0.3,0.9-0.4,1-0.4c0.1,0,0.2,0,0.3,0.1
		c0.1,0.1,0.1,0.2,0.1,0.3c0,0.1,0,0.2-0.1,0.3c-0.1,0.1-0.2,0.2-0.4,0.3c-0.4,0.2-0.8,0.4-1.3,0.5c-0.4,0.1-0.9,0.2-1.3,0.2
		c-0.9,0-1.7-0.3-2.2-0.8c-0.6-0.5-0.8-1.3-0.8-2.1c0-0.9,0.3-1.6,0.9-2.2s1.4-0.8,2.3-0.8c0.9,0,1.6,0.3,2.2,0.8
		c0.6,0.5,0.9,1.2,0.9,1.9c0,0.2,0,0.4-0.1,0.5c-0.1,0.1-0.4,0.1-0.8,0.1h-0.1H51.6z M51.6,32.6h4c-0.1-0.5-0.3-0.9-0.6-1.2
		s-0.8-0.4-1.3-0.4c-0.5,0-1,0.1-1.4,0.4C52,31.7,51.7,32.1,51.6,32.6z"/>
	<path d="M60.6,35.1h2c0.2,0,0.3,0,0.4,0.1c0.1,0.1,0.1,0.2,0.1,0.3c0,0.2,0,0.3-0.1,0.3c-0.1,0.1-0.2,0.1-0.4,0.1h-4
		c-0.2,0-0.3,0-0.4-0.1c-0.1-0.1-0.1-0.2-0.1-0.3c0-0.1,0-0.3,0.1-0.3c0.1-0.1,0.2-0.1,0.4-0.1h1.1v-3.9h-0.4c-0.4,0-0.6,0-0.7-0.1
		c-0.1-0.1-0.1-0.2-0.1-0.3c0-0.1,0-0.2,0.1-0.3c0.1-0.1,0.2-0.1,0.4-0.1h1.4c0.1,0,0.2,0,0.3,0.1c0.1,0,0.1,0.1,0.1,0.2v1
		c0.4-0.5,0.8-0.9,1.2-1.1c0.4-0.2,0.9-0.4,1.4-0.4c0.4,0,0.7,0.1,0.9,0.2c0.2,0.1,0.3,0.3,0.3,0.6c0,0.2-0.1,0.3-0.2,0.4
		c-0.1,0.1-0.2,0.2-0.4,0.2c-0.1,0-0.3-0.1-0.5-0.2c-0.2-0.1-0.4-0.2-0.6-0.2c-0.3,0-0.7,0.1-1,0.3c-0.4,0.2-0.7,0.6-1.2,1.1V35.1z"
		/>
	<path d="M68.2,35.1h2c0.2,0,0.3,0,0.4,0.1c0.1,0.1,0.1,0.2,0.1,0.3c0,0.2,0,0.3-0.1,0.3c-0.1,0.1-0.2,0.1-0.4,0.1h-4
		c-0.2,0-0.3,0-0.4-0.1s-0.1-0.2-0.1-0.3c0-0.1,0-0.3,0.1-0.3c0.1-0.1,0.2-0.1,0.4-0.1h1.1v-3.9h-0.4c-0.4,0-0.6,0-0.7-0.1
		C66,31,66,30.9,66,30.7c0-0.1,0-0.2,0.1-0.3c0.1-0.1,0.2-0.1,0.4-0.1h1.4c0.1,0,0.2,0,0.3,0.1c0.1,0,0.1,0.1,0.1,0.2v1
		c0.4-0.5,0.8-0.9,1.2-1.1c0.4-0.2,0.9-0.4,1.4-0.4c0.4,0,0.7,0.1,0.9,0.2c0.2,0.1,0.3,0.3,0.3,0.6c0,0.2-0.1,0.3-0.2,0.4
		c-0.1,0.1-0.2,0.2-0.4,0.2c-0.1,0-0.3-0.1-0.5-0.2c-0.2-0.1-0.4-0.2-0.6-0.2c-0.3,0-0.7,0.1-1,0.3c-0.4,0.2-0.7,0.6-1.2,1.1V35.1z"
		/>
	<path d="M79.6,33.1c0,0.9-0.3,1.6-0.9,2.2c-0.6,0.6-1.4,0.8-2.3,0.8c-1,0-1.7-0.3-2.3-0.8c-0.6-0.6-0.9-1.3-0.9-2.2
		c0-0.9,0.3-1.6,0.9-2.1c0.6-0.6,1.4-0.8,2.3-0.8s1.7,0.3,2.3,0.8C79.3,31.5,79.6,32.2,79.6,33.1z M76.3,35.2c0.6,0,1.1-0.2,1.6-0.6
		s0.6-0.9,0.6-1.5c0-0.6-0.2-1.1-0.6-1.5C77.5,31.2,77,31,76.3,31s-1.1,0.2-1.5,0.6c-0.4,0.4-0.6,0.9-0.6,1.5c0,0.6,0.2,1.1,0.6,1.5
		C75.2,35,75.7,35.2,76.3,35.2z"/>
	<path d="M83.3,35.1h2c0.2,0,0.3,0,0.4,0.1c0.1,0.1,0.1,0.2,0.1,0.3c0,0.2,0,0.3-0.1,0.3c-0.1,0.1-0.2,0.1-0.4,0.1h-4
		c-0.2,0-0.3,0-0.4-0.1s-0.1-0.2-0.1-0.3c0-0.1,0-0.3,0.1-0.3c0.1-0.1,0.2-0.1,0.4-0.1h1.1v-3.9H82c-0.4,0-0.6,0-0.7-0.1
		c-0.1-0.1-0.1-0.2-0.1-0.3c0-0.1,0-0.2,0.1-0.3c0.1-0.1,0.2-0.1,0.4-0.1H83c0.1,0,0.2,0,0.3,0.1c0.1,0,0.1,0.1,0.1,0.2v1
		c0.4-0.5,0.8-0.9,1.2-1.1c0.4-0.2,0.9-0.4,1.4-0.4c0.4,0,0.7,0.1,0.9,0.2c0.2,0.1,0.3,0.3,0.3,0.6c0,0.2-0.1,0.3-0.2,0.4
		c-0.1,0.1-0.2,0.2-0.4,0.2c-0.1,0-0.3-0.1-0.5-0.2c-0.2-0.1-0.4-0.2-0.6-0.2c-0.3,0-0.7,0.1-1,0.3c-0.4,0.2-0.7,0.6-1.2,1.1V35.1z"
		/>
	<path d="M95.4,38.2v0.7h-7.8v-0.7H95.4z"/>
	<path d="M98.4,35.1h2c0.2,0,0.3,0,0.4,0.1c0.1,0.1,0.1,0.2,0.1,0.3c0,0.2,0,0.3-0.1,0.3c-0.1,0.1-0.2,0.1-0.4,0.1h-4
		c-0.2,0-0.3,0-0.4-0.1c-0.1-0.1-0.1-0.2-0.1-0.3c0-0.1,0-0.3,0.1-0.3c0.1-0.1,0.2-0.1,0.4-0.1h1.1v-3.9h-0.4c-0.4,0-0.6,0-0.7-0.1
		c-0.1-0.1-0.1-0.2-0.1-0.3c0-0.1,0-0.2,0.1-0.3c0.1-0.1,0.2-0.1,0.4-0.1h1.4c0.1,0,0.2,0,0.3,0.1c0.1,0,0.1,0.1,0.1,0.2v1
		c0.4-0.5,0.8-0.9,1.2-1.1c0.4-0.2,0.9-0.4,1.4-0.4c0.4,0,0.7,0.1,0.9,0.2c0.2,0.1,0.3,0.3,0.3,0.6c0,0.2-0.1,0.3-0.2,0.4
		c-0.1,0.1-0.2,0.2-0.4,0.2c-0.1,0-0.3-0.1-0.5-0.2c-0.2-0.1-0.4-0.2-0.6-0.2c-0.3,0-0.7,0.1-1,0.3c-0.4,0.2-0.7,0.6-1.2,1.1V35.1z"
		/>
	<path d="M104.5,33.4c0,0.6,0.2,1.1,0.6,1.4c0.4,0.3,0.9,0.5,1.5,0.5c0.5,0,1-0.1,1.6-0.4c0.6-0.3,0.9-0.4,1-0.4
		c0.1,0,0.2,0,0.3,0.1s0.1,0.2,0.1,0.3c0,0.1,0,0.2-0.1,0.3c-0.1,0.1-0.2,0.2-0.4,0.3c-0.4,0.2-0.8,0.4-1.3,0.5
		c-0.4,0.1-0.9,0.2-1.3,0.2c-0.9,0-1.7-0.3-2.2-0.8c-0.6-0.5-0.8-1.3-0.8-2.1c0-0.9,0.3-1.6,0.9-2.2s1.4-0.8,2.3-0.8
		c0.9,0,1.6,0.3,2.2,0.8s0.9,1.2,0.9,1.9c0,0.2,0,0.4-0.1,0.5c-0.1,0.1-0.4,0.1-0.8,0.1h-0.1H104.5z M104.5,32.6h4
		c-0.1-0.5-0.3-0.9-0.6-1.2s-0.8-0.4-1.3-0.4c-0.5,0-1,0.1-1.4,0.4C104.9,31.7,104.6,32.1,104.5,32.6z"/>
	<path d="M112.5,37.5h1.5c0.2,0,0.3,0,0.4,0.1c0.1,0.1,0.1,0.2,0.1,0.3c0,0.2,0,0.3-0.1,0.3c-0.1,0.1-0.2,0.1-0.4,0.1h-2.7
		c-0.2,0-0.3,0-0.4-0.1c-0.1-0.1-0.1-0.2-0.1-0.3c0-0.2,0.1-0.3,0.2-0.3c0.1-0.1,0.3-0.1,0.6-0.1h0.1v-6.4h-0.1
		c-0.3,0-0.5,0-0.6-0.1c-0.1-0.1-0.2-0.2-0.2-0.3c0-0.1,0-0.3,0.1-0.3c0.1-0.1,0.2-0.1,0.4-0.1h0.9c0.1,0,0.2,0,0.3,0.1
		c0.1,0,0.1,0.1,0.1,0.2v0.6c0.3-0.3,0.6-0.5,0.9-0.6c0.3-0.1,0.7-0.2,1.1-0.2c0.8,0,1.5,0.3,2.1,0.8c0.6,0.6,0.8,1.3,0.8,2.1
		c0,0.8-0.3,1.5-0.8,2c-0.5,0.5-1.2,0.8-2,0.8c-0.4,0-0.8-0.1-1.2-0.2c-0.4-0.2-0.7-0.4-0.9-0.7V37.5z M114.5,35
		c0.6,0,1-0.2,1.4-0.5c0.4-0.4,0.5-0.8,0.5-1.4c0-0.6-0.2-1-0.6-1.4c-0.4-0.4-0.8-0.5-1.4-0.5s-1,0.2-1.4,0.5
		c-0.4,0.4-0.5,0.8-0.5,1.4c0,0.6,0.2,1,0.5,1.4C113.4,34.9,113.9,35,114.5,35z"/>
	<path d="M124.9,33.1c0,0.9-0.3,1.6-0.9,2.2s-1.4,0.8-2.3,0.8c-1,0-1.7-0.3-2.3-0.8s-0.9-1.3-0.9-2.2c0-0.9,0.3-1.6,0.9-2.1
		s1.4-0.8,2.3-0.8c1,0,1.7,0.3,2.3,0.8C124.6,31.5,124.9,32.2,124.9,33.1z M121.7,35.2c0.6,0,1.1-0.2,1.6-0.6
		c0.4-0.4,0.6-0.9,0.6-1.5c0-0.6-0.2-1.1-0.6-1.5c-0.4-0.4-0.9-0.6-1.5-0.6c-0.6,0-1.1,0.2-1.5,0.6c-0.4,0.4-0.6,0.9-0.6,1.5
		c0,0.6,0.2,1.1,0.6,1.5C120.5,35,121.1,35.2,121.7,35.2z"/>
	<path d="M128.6,35.1h2c0.2,0,0.3,0,0.4,0.1c0.1,0.1,0.1,0.2,0.1,0.3c0,0.2,0,0.3-0.1,0.3c-0.1,0.1-0.2,0.1-0.4,0.1h-4
		c-0.2,0-0.3,0-0.4-0.1c-0.1-0.1-0.1-0.2-0.1-0.3c0-0.1,0-0.3,0.1-0.3c0.1-0.1,0.2-0.1,0.4-0.1h1.1v-3.9h-0.4c-0.4,0-0.6,0-0.7-0.1
		c-0.1-0.1-0.1-0.2-0.1-0.3c0-0.1,0-0.2,0.1-0.3c0.1-0.1,0.2-0.1,0.4-0.1h1.4c0.1,0,0.2,0,0.3,0.1c0.1,0,0.1,0.1,0.1,0.2v1
		c0.4-0.5,0.8-0.9,1.2-1.1c0.4-0.2,0.9-0.4,1.4-0.4c0.4,0,0.7,0.1,0.9,0.2c0.2,0.1,0.3,0.3,0.3,0.6c0,0.2-0.1,0.3-0.2,0.4
		c-0.1,0.1-0.2,0.2-0.4,0.2c-0.1,0-0.3-0.1-0.5-0.2c-0.2-0.1-0.4-0.2-0.6-0.2c-0.3,0-0.7,0.1-1,0.3c-0.4,0.2-0.7,0.6-1.2,1.1V35.1z"
		/>
	<path d="M138.5,30.6c0.2,0,0.3,0,0.4,0.1c0.1,0.1,0.1,0.2,0.1,0.3c0,0.1,0,0.3-0.1,0.3s-0.2,0.1-0.4,0.1h-2.5v2.1
		c0,0.7,0.1,1.1,0.3,1.3c0.2,0.2,0.5,0.3,0.9,0.3c0.4,0,0.8-0.1,1.3-0.3s0.8-0.3,1-0.3c0.1,0,0.2,0,0.3,0.1c0.1,0.1,0.1,0.2,0.1,0.3
		c0,0.1-0.1,0.3-0.2,0.4c-0.1,0.1-0.3,0.2-0.5,0.3c-0.4,0.2-0.8,0.3-1.1,0.4c-0.3,0.1-0.6,0.1-0.9,0.1c-0.5,0-0.9-0.1-1.2-0.2
		c-0.3-0.2-0.6-0.4-0.7-0.7c-0.1-0.1-0.1-0.3-0.2-0.5c0-0.2-0.1-0.5-0.1-0.9v-0.2v-2.1h-1c-0.2,0-0.3,0-0.4-0.1
		c-0.1-0.1-0.1-0.2-0.1-0.3c0-0.2,0.1-0.3,0.2-0.3c0.1-0.1,0.3-0.1,0.7-0.1h0.7v-1.3V29c0-0.2,0-0.3,0.1-0.4
		c0.1-0.1,0.2-0.1,0.4-0.1c0.2,0,0.3,0.1,0.4,0.2c0.1,0.1,0.1,0.3,0.1,0.7v1.2H138.5z"/>
	<path d="M144.9,35.1h2c0.2,0,0.3,0,0.4,0.1c0.1,0.1,0.1,0.2,0.1,0.3c0,0.2,0,0.3-0.1,0.3c-0.1,0.1-0.2,0.1-0.4,0.1h-4.8
		c-0.2,0-0.3,0-0.4-0.1c-0.1-0.1-0.1-0.2-0.1-0.3c0-0.1,0-0.3,0.1-0.3c0.1-0.1,0.2-0.1,0.4-0.1h1.9v-3.9h-1.2c-0.2,0-0.3,0-0.4-0.1
		c-0.1-0.1-0.1-0.2-0.1-0.3c0-0.1,0-0.2,0.1-0.3c0.1-0.1,0.2-0.1,0.4-0.1h1.8c0.1,0,0.2,0,0.3,0.1c0.1,0,0.1,0.1,0.1,0.2V35.1z
		 M143.8,28.5c0-0.4,0-0.7,0.1-0.8c0.1-0.1,0.3-0.2,0.5-0.2c0.3,0,0.4,0,0.5,0.1c0.1,0.1,0.1,0.3,0.1,0.7c0,0.4,0,0.6-0.1,0.7
		c-0.1,0.1-0.2,0.1-0.5,0.1c-0.3,0-0.4,0-0.5-0.1C143.8,28.9,143.8,28.7,143.8,28.5z"/>
	<path d="M149.6,35.1v-3.9h-0.1c-0.3,0-0.5,0-0.6-0.1c-0.1-0.1-0.2-0.2-0.2-0.3c0-0.2,0-0.3,0.1-0.3c0.1-0.1,0.2-0.1,0.4-0.1h0.3
		h0.6c0.1,0,0.2,0,0.3,0.1s0.1,0.1,0.1,0.2v0.4c0.3-0.3,0.6-0.5,0.9-0.6c0.3-0.1,0.6-0.2,0.9-0.2c0.6,0,1.1,0.2,1.5,0.6
		c0.4,0.4,0.5,0.9,0.5,1.6v2.8h0.3c0.2,0,0.4,0,0.4,0.1c0.1,0.1,0.1,0.2,0.1,0.3c0,0.2,0,0.3-0.1,0.3c-0.1,0.1-0.3,0.1-0.5,0.1h-1.4
		c-0.3,0-0.4,0-0.5-0.1c-0.1-0.1-0.1-0.2-0.1-0.4c0-0.2,0-0.3,0.1-0.3c0.1-0.1,0.3-0.1,0.5-0.1h0.2v-2.6c0-0.5-0.1-0.8-0.3-1.1
		c-0.2-0.3-0.5-0.4-0.9-0.4c-0.4,0-0.8,0.1-1.1,0.4c-0.3,0.3-0.5,0.6-0.5,1.1v2.6h0.2c0.2,0,0.4,0,0.5,0.1c0.1,0.1,0.1,0.2,0.1,0.3
		c0,0.2,0,0.3-0.1,0.4s-0.3,0.1-0.5,0.1h-1.1h-0.3c-0.2,0-0.3,0-0.4-0.1c-0.1-0.1-0.1-0.2-0.1-0.3c0-0.2,0-0.3,0.1-0.3
		c0.1-0.1,0.3-0.1,0.6-0.1H149.6z"/>
	<path d="M162,35.6c0,0.6,0,1-0.1,1.2c-0.1,0.2-0.2,0.4-0.3,0.6c-0.2,0.3-0.6,0.5-1,0.7c-0.4,0.2-0.9,0.2-1.5,0.2
		c-0.5,0-0.8,0-1-0.1c-0.2-0.1-0.3-0.2-0.3-0.4c0-0.1,0.1-0.2,0.2-0.3c0.1-0.1,0.2-0.1,0.4-0.1c0.1,0,0.3,0,0.5,0c0.2,0,0.4,0,0.5,0
		c0.6,0,1-0.1,1.3-0.4c0.3-0.3,0.4-0.8,0.4-1.4v-0.7c-0.3,0.3-0.5,0.5-0.8,0.6c-0.3,0.1-0.7,0.2-1,0.2c-0.8,0-1.4-0.3-1.9-0.8
		c-0.5-0.5-0.8-1.2-0.8-1.9c0-0.8,0.3-1.4,0.8-2c0.5-0.5,1.2-0.8,1.9-0.8c0.3,0,0.6,0.1,0.9,0.2c0.3,0.1,0.6,0.3,0.9,0.5v-0.4
		c0-0.1,0-0.1,0.1-0.2c0.1,0,0.1-0.1,0.3-0.1h0.9c0.2,0,0.3,0,0.4,0.1c0.1,0.1,0.1,0.2,0.1,0.3c0,0.2-0.1,0.3-0.2,0.3
		c-0.1,0.1-0.3,0.1-0.6,0.1H162V35.6z M159.3,31.2c-0.5,0-1,0.2-1.3,0.5c-0.3,0.3-0.5,0.8-0.5,1.3c0,0.5,0.2,0.9,0.5,1.3
		c0.3,0.3,0.8,0.5,1.3,0.5c0.5,0,1-0.2,1.3-0.5c0.3-0.3,0.5-0.8,0.5-1.3s-0.2-0.9-0.5-1.3C160.3,31.3,159.8,31.2,159.3,31.2z"/>
	<path d="M168.3,28.7c0,0.1-0.1,0.3-0.2,0.6c-0.1,0.3-0.2,0.5-0.3,0.7c-0.3,0.7-0.5,1.2-0.6,1.8c-0.1,0.5-0.2,1.1-0.2,1.7
		c0,0.5,0,1.1,0.1,1.6c0.1,0.5,0.2,1,0.4,1.5c0.1,0.3,0.2,0.6,0.4,1c0.2,0.4,0.3,0.6,0.3,0.7c0,0.1,0,0.2-0.1,0.2
		c0,0.1-0.1,0.1-0.2,0.1c-0.1,0-0.3-0.1-0.4-0.2c-0.2-0.1-0.3-0.3-0.5-0.6c-0.4-0.6-0.8-1.3-1-2c-0.2-0.7-0.3-1.4-0.3-2.2
		c0-0.7,0.1-1.4,0.3-2c0.2-0.6,0.4-1.2,0.8-1.8c0.2-0.4,0.5-0.7,0.7-0.9c0.2-0.2,0.4-0.3,0.5-0.3c0.1,0,0.1,0,0.2,0.1
		C168.3,28.6,168.3,28.6,168.3,28.7z"/>
	<path d="M172,35.9h-0.3c-0.1,0-0.3,0-0.3-0.1c-0.1-0.1-0.1-0.2-0.1-0.3c0-0.2,0-0.3,0.1-0.3c0.1-0.1,0.3-0.1,0.6-0.1h0.4v-5.5H172
		c-0.3,0-0.5,0-0.6-0.1c-0.1-0.1-0.1-0.2-0.1-0.3c0-0.2,0-0.3,0.1-0.3c0.1-0.1,0.2-0.1,0.3-0.1h0.3h5.1c0.1,0,0.2,0,0.3,0.1
		c0.1,0.1,0.1,0.2,0.1,0.4v1.5c0,0.2,0,0.4-0.1,0.4c-0.1,0.1-0.2,0.1-0.3,0.1c-0.2,0-0.3,0-0.3-0.1c-0.1-0.1-0.1-0.3-0.1-0.6v-0.9
		h-3.3v2.1h1.6v-0.3c0-0.2,0-0.4,0.1-0.5c0.1-0.1,0.2-0.1,0.3-0.1c0.1,0,0.2,0,0.3,0.1c0.1,0.1,0.1,0.3,0.1,0.6v1.1
		c0,0.3,0,0.5-0.1,0.6c-0.1,0.1-0.2,0.1-0.3,0.1s-0.2,0-0.3-0.1c-0.1-0.1-0.1-0.3-0.1-0.6v-0.2h-1.6v2.7h3.3v-1c0-0.3,0-0.5,0.1-0.6
		c0.1-0.1,0.2-0.1,0.3-0.1c0.2,0,0.3,0,0.3,0.1c0.1,0.1,0.1,0.2,0.1,0.5v1.5c0,0.1,0,0.3-0.1,0.3c-0.1,0.1-0.2,0.1-0.3,0.1H172z"/>
	<path d="M186,38.2v0.7h-7.8v-0.7H186z"/>
	<path d="M188.8,29.5h-0.9c-0.3,0-0.4,0-0.5-0.1c-0.1-0.1-0.2-0.2-0.2-0.3c0-0.2,0-0.3,0.1-0.3c0.1-0.1,0.3-0.1,0.7-0.1h1.8
		c0.2,0,0.4,0,0.5,0.1c0.1,0.1,0.2,0.2,0.2,0.3l2.4,6h0.1c0.2,0,0.4,0,0.5,0.1c0.1,0.1,0.1,0.2,0.1,0.3c0,0.2,0,0.3-0.1,0.3
		c-0.1,0.1-0.2,0.1-0.4,0.1h-1.7c-0.3,0-0.5,0-0.6-0.1c-0.1-0.1-0.1-0.2-0.1-0.3c0-0.2,0-0.3,0.1-0.3c0.1-0.1,0.3-0.1,0.5-0.1h0.6
		l-0.6-1.5h-3.1l-0.5,1.5h0.6c0.3,0,0.5,0,0.6,0.1c0.1,0.1,0.1,0.2,0.1,0.3c0,0.2,0,0.3-0.1,0.3c-0.1,0.1-0.3,0.1-0.6,0.1h-1.6
		c-0.3,0-0.4,0-0.5-0.1c-0.1-0.1-0.1-0.2-0.1-0.3c0-0.2,0-0.3,0.1-0.3c0.1-0.1,0.3-0.1,0.5-0.1h0.1L188.8,29.5z M188.4,32.8h2.5
		l-1.3-3.3L188.4,32.8z"/>
	<path d="M199.6,33.5c0-0.3,0-0.5,0.1-0.6s0.2-0.1,0.4-0.1c0.1,0,0.3,0,0.3,0.1c0.1,0.1,0.1,0.2,0.1,0.4v0.3v2c0,0.1,0,0.3-0.1,0.3
		c-0.1,0.1-0.2,0.1-0.3,0.1h-5.5h-0.3c-0.1,0-0.3,0-0.3-0.1s-0.1-0.2-0.1-0.3c0-0.2,0-0.3,0.1-0.3c0.1-0.1,0.3-0.1,0.6-0.1h0.8v-5.5
		h-0.8c-0.3,0-0.5,0-0.6-0.1c-0.1-0.1-0.1-0.2-0.1-0.3c0-0.2,0-0.3,0.1-0.3c0.1-0.1,0.2-0.1,0.4-0.1h0.3h2.8h0.3
		c0.1,0,0.3,0,0.3,0.1c0.1,0.1,0.1,0.2,0.1,0.3c0,0.2,0,0.3-0.1,0.3c-0.1,0.1-0.3,0.1-0.6,0.1h-1v5.5h3.3V33.5z"/>
	<path d="M207.1,33.5c0-0.3,0-0.5,0.1-0.6s0.2-0.1,0.4-0.1c0.1,0,0.3,0,0.3,0.1c0.1,0.1,0.1,0.2,0.1,0.4v0.3v2c0,0.1,0,0.3-0.1,0.3
		c-0.1,0.1-0.2,0.1-0.3,0.1h-5.5h-0.3c-0.1,0-0.3,0-0.3-0.1s-0.1-0.2-0.1-0.3c0-0.2,0-0.3,0.1-0.3c0.1-0.1,0.3-0.1,0.6-0.1h0.8v-5.5
		h-0.8c-0.3,0-0.5,0-0.6-0.1c-0.1-0.1-0.1-0.2-0.1-0.3c0-0.2,0-0.3,0.1-0.3c0.1-0.1,0.2-0.1,0.4-0.1h0.3h2.8h0.3
		c0.1,0,0.3,0,0.3,0.1c0.1,0.1,0.1,0.2,0.1,0.3c0,0.2,0,0.3-0.1,0.3c-0.1,0.1-0.3,0.1-0.6,0.1h-1v5.5h3.3V33.5z"/>
	<path d="M211.1,38.1c0-0.1,0.1-0.3,0.2-0.5c0.1-0.3,0.2-0.5,0.3-0.7c0.3-0.7,0.5-1.3,0.6-1.8c0.1-0.5,0.2-1.1,0.2-1.7
		c0-0.5-0.1-1-0.2-1.5c-0.1-0.5-0.3-1-0.5-1.5c-0.1-0.3-0.2-0.6-0.4-1c-0.2-0.4-0.3-0.6-0.3-0.7c0-0.1,0-0.1,0.1-0.2
		c0-0.1,0.1-0.1,0.2-0.1c0.1,0,0.3,0.1,0.4,0.2c0.2,0.1,0.3,0.3,0.5,0.6c0.4,0.6,0.8,1.3,1,2c0.2,0.7,0.3,1.4,0.3,2.2
		c0,0.7-0.1,1.4-0.3,2c-0.2,0.6-0.5,1.2-0.8,1.8c-0.3,0.4-0.5,0.7-0.7,0.9c-0.2,0.2-0.4,0.3-0.5,0.3c-0.1,0-0.1,0-0.2-0.1
		C211.1,38.3,211.1,38.2,211.1,38.1z"/>
	<path d="M219.2,34.4c0-0.1,0.1-0.2,0.1-0.3s0.1-0.1,0.3-0.1h1.3c0.1,0,0.1,0,0.1,0c0,0,0.1,0.1,0.1,0.1c0,0,0,0,0,0.1
		c0,0,0,0.1,0,0.1l-1.6,3.3c0,0.1-0.1,0.1-0.1,0.1c0,0-0.1,0-0.1,0c0,0-0.1,0-0.1,0c0,0,0,0,0,0l-0.4-0.1c-0.1,0-0.1-0.1-0.1-0.1
		c0,0,0-0.1,0-0.1c0,0,0,0,0-0.1c0,0,0-0.1,0-0.1L219.2,34.4z M218.7,31.5c0-0.3,0.1-0.6,0.3-0.8c0.2-0.2,0.5-0.3,0.9-0.3
		c0.4,0,0.7,0.1,0.9,0.3c0.2,0.2,0.3,0.5,0.3,0.8c0,0.3-0.1,0.6-0.3,0.8c-0.2,0.2-0.5,0.3-0.9,0.3c-0.4,0-0.7-0.1-0.9-0.3
		C218.8,32.1,218.7,31.9,218.7,31.5z"/>
	<path d="M235.6,35.1h2c0.2,0,0.3,0,0.4,0.1c0.1,0.1,0.1,0.2,0.1,0.3c0,0.2,0,0.3-0.1,0.3c-0.1,0.1-0.2,0.1-0.4,0.1h-4.8
		c-0.2,0-0.3,0-0.4-0.1c-0.1-0.1-0.1-0.2-0.1-0.3c0-0.1,0-0.3,0.1-0.3c0.1-0.1,0.2-0.1,0.4-0.1h1.9v-3.9h-1.2c-0.2,0-0.3,0-0.4-0.1
		c-0.1-0.1-0.1-0.2-0.1-0.3c0-0.1,0-0.2,0.1-0.3c0.1-0.1,0.2-0.1,0.4-0.1h1.8c0.1,0,0.2,0,0.3,0.1c0.1,0,0.1,0.1,0.1,0.2V35.1z
		 M234.5,28.5c0-0.4,0-0.7,0.1-0.8c0.1-0.1,0.3-0.2,0.5-0.2c0.3,0,0.4,0,0.5,0.1c0.1,0.1,0.1,0.3,0.1,0.7c0,0.4,0,0.6-0.1,0.7
		s-0.2,0.1-0.5,0.1c-0.3,0-0.4,0-0.5-0.1C234.5,28.9,234.5,28.7,234.5,28.5z"/>
	<path d="M240.3,35.1v-3.9h-0.1c-0.3,0-0.5,0-0.6-0.1c-0.1-0.1-0.2-0.2-0.2-0.3c0-0.2,0-0.3,0.1-0.3c0.1-0.1,0.2-0.1,0.4-0.1h0.3
		h0.6c0.1,0,0.2,0,0.3,0.1s0.1,0.1,0.1,0.2v0.4c0.3-0.3,0.6-0.5,0.9-0.6c0.3-0.1,0.6-0.2,0.9-0.2c0.6,0,1.1,0.2,1.5,0.6
		c0.4,0.4,0.5,0.9,0.5,1.6v2.8h0.3c0.2,0,0.4,0,0.4,0.1c0.1,0.1,0.1,0.2,0.1,0.3c0,0.2,0,0.3-0.1,0.3c-0.1,0.1-0.3,0.1-0.5,0.1h-1.4
		c-0.3,0-0.4,0-0.5-0.1c-0.1-0.1-0.1-0.2-0.1-0.4c0-0.2,0-0.3,0.1-0.3c0.1-0.1,0.3-0.1,0.5-0.1h0.2v-2.6c0-0.5-0.1-0.8-0.3-1.1
		c-0.2-0.3-0.5-0.4-0.9-0.4c-0.4,0-0.8,0.1-1.1,0.4c-0.3,0.3-0.5,0.6-0.5,1.1v2.6h0.2c0.2,0,0.4,0,0.5,0.1c0.1,0.1,0.1,0.2,0.1,0.3
		c0,0.2,0,0.3-0.1,0.4s-0.3,0.1-0.5,0.1h-1.1H240c-0.2,0-0.3,0-0.4-0.1c-0.1-0.1-0.1-0.2-0.1-0.3c0-0.2,0-0.3,0.1-0.3
		c0.1-0.1,0.3-0.1,0.6-0.1H240.3z"/>
	<path d="M250.7,35.1h2c0.2,0,0.3,0,0.4,0.1c0.1,0.1,0.1,0.2,0.1,0.3c0,0.2,0,0.3-0.1,0.3c-0.1,0.1-0.2,0.1-0.4,0.1h-4.8
		c-0.2,0-0.3,0-0.4-0.1c-0.1-0.1-0.1-0.2-0.1-0.3c0-0.1,0-0.3,0.1-0.3c0.1-0.1,0.2-0.1,0.4-0.1h1.9v-3.9h-1.2c-0.2,0-0.3,0-0.4-0.1
		c-0.1-0.1-0.1-0.2-0.1-0.3c0-0.1,0-0.2,0.1-0.3c0.1-0.1,0.2-0.1,0.4-0.1h1.8c0.1,0,0.2,0,0.3,0.1c0.1,0,0.1,0.1,0.1,0.2V35.1z
		 M249.6,28.5c0-0.4,0-0.7,0.1-0.8c0.1-0.1,0.3-0.2,0.5-0.2c0.3,0,0.4,0,0.5,0.1c0.1,0.1,0.1,0.3,0.1,0.7c0,0.4,0,0.6-0.1,0.7
		s-0.2,0.1-0.5,0.1c-0.3,0-0.4,0-0.5-0.1C249.6,28.9,249.6,28.7,249.6,28.5z"/>
	<path d="M261.6,38.2v0.7h-7.8v-0.7H261.6z"/>
	<path d="M262.6,35.5v-1.1c0-0.2,0-0.3,0.1-0.4c0.1-0.1,0.2-0.1,0.3-0.1c0.2,0,0.3,0.1,0.4,0.3c0.1,0.1,0.1,0.2,0.2,0.3
		c0.2,0.2,0.4,0.4,0.8,0.5s0.7,0.2,1.1,0.2c0.4,0,0.8-0.1,1-0.3s0.4-0.4,0.4-0.7c0-0.3-0.1-0.5-0.3-0.6c-0.2-0.1-0.6-0.2-1.1-0.2
		h-0.3c-0.8,0-1.5-0.1-1.9-0.4s-0.7-0.7-0.7-1.3c0-0.5,0.2-1,0.6-1.3c0.4-0.3,1-0.4,1.8-0.4c0.3,0,0.6,0,1,0.1s0.5,0.1,0.5,0.1
		c0,0,0.1,0,0.3-0.1c0.1-0.1,0.3-0.1,0.4-0.1c0.1,0,0.2,0.1,0.3,0.2c0.1,0.1,0.1,0.3,0.1,0.5v0.7c0,0.2,0,0.4-0.1,0.5
		c-0.1,0.1-0.2,0.1-0.3,0.1c-0.1,0-0.3-0.1-0.5-0.3c-0.1-0.1-0.2-0.3-0.3-0.3c-0.2-0.2-0.4-0.3-0.7-0.4c-0.2-0.1-0.5-0.1-0.9-0.1
		c-0.4,0-0.7,0.1-0.9,0.3c-0.2,0.2-0.4,0.4-0.4,0.6c0,0.3,0.1,0.4,0.4,0.6c0.2,0.1,0.8,0.2,1.6,0.2c0.9,0,1.5,0.2,1.9,0.4
		c0.4,0.3,0.6,0.7,0.6,1.3c0,0.6-0.2,1-0.7,1.3c-0.4,0.3-1,0.5-1.8,0.5c-0.2,0-0.5,0-0.8-0.1c-0.3,0-0.6-0.1-1.1-0.2
		c-0.1,0.1-0.3,0.2-0.4,0.2c-0.1,0-0.2,0.1-0.3,0.1c-0.1,0-0.3-0.1-0.3-0.2C262.6,35.8,262.6,35.7,262.6,35.5z"/>
	<path d="M270.8,33.4c0,0.6,0.2,1.1,0.6,1.4c0.4,0.3,0.9,0.5,1.5,0.5c0.5,0,1-0.1,1.6-0.4c0.6-0.3,0.9-0.4,1-0.4
		c0.1,0,0.2,0,0.3,0.1c0.1,0.1,0.1,0.2,0.1,0.3c0,0.1,0,0.2-0.1,0.3c-0.1,0.1-0.2,0.2-0.4,0.3c-0.4,0.2-0.8,0.4-1.3,0.5
		c-0.4,0.1-0.9,0.2-1.3,0.2c-0.9,0-1.7-0.3-2.2-0.8c-0.6-0.5-0.8-1.3-0.8-2.1c0-0.9,0.3-1.6,0.9-2.2c0.6-0.6,1.4-0.8,2.3-0.8
		c0.9,0,1.6,0.3,2.2,0.8c0.6,0.5,0.9,1.2,0.9,1.9c0,0.2,0,0.4-0.1,0.5c-0.1,0.1-0.4,0.1-0.8,0.1h-0.1H270.8z M270.8,32.6h4
		c-0.1-0.5-0.3-0.9-0.6-1.2c-0.3-0.3-0.8-0.4-1.3-0.4c-0.5,0-1,0.1-1.4,0.4C271.2,31.7,270.9,32.1,270.8,32.6z"/>
	<path d="M282.1,30.6c0.2,0,0.3,0,0.4,0.1c0.1,0.1,0.1,0.2,0.1,0.3c0,0.1,0,0.3-0.1,0.3s-0.2,0.1-0.4,0.1h-2.5v2.1
		c0,0.7,0.1,1.1,0.3,1.3c0.2,0.2,0.5,0.3,0.9,0.3c0.4,0,0.8-0.1,1.3-0.3c0.5-0.2,0.8-0.3,1-0.3c0.1,0,0.2,0,0.3,0.1
		c0.1,0.1,0.1,0.2,0.1,0.3c0,0.1-0.1,0.3-0.2,0.4c-0.1,0.1-0.3,0.2-0.5,0.3c-0.4,0.2-0.8,0.3-1.1,0.4c-0.3,0.1-0.6,0.1-0.9,0.1
		c-0.5,0-0.9-0.1-1.2-0.2c-0.3-0.2-0.6-0.4-0.7-0.7c-0.1-0.1-0.1-0.3-0.2-0.5c0-0.2-0.1-0.5-0.1-0.9v-0.2v-2.1h-1
		c-0.2,0-0.3,0-0.4-0.1c-0.1-0.1-0.1-0.2-0.1-0.3c0-0.2,0.1-0.3,0.2-0.3c0.1-0.1,0.3-0.1,0.7-0.1h0.7v-1.3V29c0-0.2,0-0.3,0.1-0.4
		c0.1-0.1,0.2-0.1,0.4-0.1c0.2,0,0.3,0.1,0.4,0.2c0.1,0.1,0.1,0.3,0.1,0.7v1.2H282.1z"/>
	<path d="M289.2,28.7c0,0.1-0.1,0.3-0.2,0.6c-0.1,0.3-0.2,0.5-0.3,0.7c-0.3,0.7-0.5,1.2-0.6,1.8c-0.1,0.5-0.2,1.1-0.2,1.7
		c0,0.5,0,1.1,0.1,1.6c0.1,0.5,0.2,1,0.4,1.5c0.1,0.3,0.2,0.6,0.4,1c0.2,0.4,0.3,0.6,0.3,0.7c0,0.1,0,0.2-0.1,0.2
		c0,0.1-0.1,0.1-0.2,0.1c-0.1,0-0.3-0.1-0.4-0.2c-0.2-0.1-0.3-0.3-0.5-0.6c-0.4-0.6-0.8-1.3-1-2c-0.2-0.7-0.3-1.4-0.3-2.2
		c0-0.7,0.1-1.4,0.3-2c0.2-0.6,0.4-1.2,0.8-1.8c0.2-0.4,0.5-0.7,0.7-0.9c0.2-0.2,0.4-0.3,0.5-0.3c0.1,0,0.1,0,0.2,0.1
		C289.2,28.6,289.2,28.6,289.2,28.7z"/>
	<path d="M295.4,30.5c-0.1,0-0.2,0-0.2-0.1c0-0.1-0.1-0.2-0.1-0.3l-0.2-2.3v-0.1c0-0.1,0-0.2,0.1-0.2c0-0.1,0.1-0.1,0.2-0.1h0.6
		c0.1,0,0.2,0,0.2,0.1c0,0.1,0.1,0.1,0.1,0.2v0.1l-0.2,2.3c0,0.2,0,0.3-0.1,0.3c0,0.1-0.1,0.1-0.2,0.1H295.4z"/>
	<path d="M304.9,35.9c-0.1,0-0.1,0-0.2-0.1c0,0-0.1-0.1-0.1-0.2v-0.5c-0.2,0.3-0.6,0.5-0.9,0.7c-0.4,0.2-0.8,0.3-1.2,0.3
		c-0.8,0-1.4-0.3-1.9-0.8c-0.5-0.6-0.8-1.2-0.8-2.1c0-0.8,0.3-1.6,0.8-2.1c0.6-0.6,1.3-0.8,2.1-0.8c0.4,0,0.8,0.1,1.1,0.2
		c0.3,0.2,0.6,0.4,0.9,0.7v-2.4h-0.3c-0.4,0-0.6,0-0.7-0.1c-0.1-0.1-0.2-0.2-0.2-0.3c0-0.1,0-0.3,0.1-0.3c0.1-0.1,0.2-0.1,0.4-0.1
		h1.3c0.1,0,0.2,0,0.3,0.1c0.1,0,0.1,0.1,0.1,0.2v6.9h0.3c0.2,0,0.3,0,0.4,0.1c0.1,0.1,0.1,0.2,0.1,0.3c0,0.1,0,0.2-0.1,0.3
		s-0.2,0.1-0.3,0.1H304.9z M300.9,33.2c0,0.6,0.2,1,0.5,1.4c0.4,0.4,0.8,0.5,1.4,0.5c0.6,0,1-0.2,1.4-0.6c0.4-0.4,0.5-0.9,0.5-1.4
		c0-0.6-0.2-1-0.5-1.4c-0.4-0.4-0.8-0.6-1.4-0.6c-0.6,0-1,0.2-1.4,0.6C301.1,32.1,300.9,32.6,300.9,33.2z"/>
	<path d="M311.2,35.1h2c0.2,0,0.3,0,0.4,0.1c0.1,0.1,0.1,0.2,0.1,0.3c0,0.2,0,0.3-0.1,0.3c-0.1,0.1-0.2,0.1-0.4,0.1h-4.8
		c-0.2,0-0.3,0-0.4-0.1s-0.1-0.2-0.1-0.3c0-0.1,0-0.3,0.1-0.3c0.1-0.1,0.2-0.1,0.4-0.1h1.9v-3.9h-1.2c-0.2,0-0.3,0-0.4-0.1
		c-0.1-0.1-0.1-0.2-0.1-0.3c0-0.1,0-0.2,0.1-0.3c0.1-0.1,0.2-0.1,0.4-0.1h1.8c0.1,0,0.2,0,0.3,0.1c0.1,0,0.1,0.1,0.1,0.2V35.1z
		 M310.1,28.5c0-0.4,0-0.7,0.1-0.8c0.1-0.1,0.3-0.2,0.5-0.2c0.3,0,0.4,0,0.5,0.1c0.1,0.1,0.1,0.3,0.1,0.7c0,0.4,0,0.6-0.1,0.7
		s-0.2,0.1-0.5,0.1c-0.3,0-0.4,0-0.5-0.1C310.1,28.9,310.1,28.7,310.1,28.5z"/>
	<path d="M315.5,35.5v-1.1c0-0.2,0-0.3,0.1-0.4c0.1-0.1,0.2-0.1,0.3-0.1c0.2,0,0.3,0.1,0.4,0.3c0.1,0.1,0.1,0.2,0.2,0.3
		c0.2,0.2,0.4,0.4,0.8,0.5c0.3,0.1,0.7,0.2,1.1,0.2c0.4,0,0.8-0.1,1-0.3c0.3-0.2,0.4-0.4,0.4-0.7c0-0.3-0.1-0.5-0.3-0.6
		c-0.2-0.1-0.6-0.2-1.1-0.2h-0.3c-0.8,0-1.5-0.1-1.9-0.4c-0.4-0.3-0.7-0.7-0.7-1.3c0-0.5,0.2-1,0.6-1.3c0.4-0.3,1-0.4,1.8-0.4
		c0.3,0,0.6,0,1,0.1c0.3,0.1,0.5,0.1,0.5,0.1c0,0,0.1,0,0.3-0.1c0.1-0.1,0.3-0.1,0.4-0.1c0.1,0,0.2,0.1,0.3,0.2
		c0.1,0.1,0.1,0.3,0.1,0.5v0.7c0,0.2,0,0.4-0.1,0.5c-0.1,0.1-0.2,0.1-0.3,0.1c-0.1,0-0.3-0.1-0.5-0.3c-0.1-0.1-0.2-0.3-0.3-0.3
		c-0.2-0.2-0.4-0.3-0.7-0.4c-0.2-0.1-0.5-0.1-0.9-0.1c-0.4,0-0.7,0.1-0.9,0.3c-0.2,0.2-0.4,0.4-0.4,0.6c0,0.3,0.1,0.4,0.4,0.6
		c0.2,0.1,0.8,0.2,1.6,0.2c0.9,0,1.5,0.2,1.9,0.4c0.4,0.3,0.6,0.7,0.6,1.3c0,0.6-0.2,1-0.7,1.3c-0.4,0.3-1,0.5-1.8,0.5
		c-0.2,0-0.5,0-0.8-0.1c-0.3,0-0.6-0.1-1.1-0.2c-0.1,0.1-0.3,0.2-0.4,0.2c-0.1,0-0.2,0.1-0.3,0.1c-0.1,0-0.3-0.1-0.3-0.2
		C315.5,35.8,315.5,35.7,315.5,35.5z"/>
	<path d="M324.2,37.5h1.5c0.2,0,0.3,0,0.4,0.1c0.1,0.1,0.1,0.2,0.1,0.3c0,0.2,0,0.3-0.1,0.3c-0.1,0.1-0.2,0.1-0.4,0.1h-2.7
		c-0.2,0-0.3,0-0.4-0.1s-0.1-0.2-0.1-0.3c0-0.2,0.1-0.3,0.2-0.3c0.1-0.1,0.3-0.1,0.6-0.1h0.1v-6.4h-0.1c-0.3,0-0.5,0-0.6-0.1
		c-0.1-0.1-0.2-0.2-0.2-0.3c0-0.1,0-0.3,0.1-0.3s0.2-0.1,0.4-0.1h0.9c0.1,0,0.2,0,0.3,0.1c0.1,0,0.1,0.1,0.1,0.2v0.6
		c0.3-0.3,0.6-0.5,0.9-0.6c0.3-0.1,0.7-0.2,1.1-0.2c0.8,0,1.5,0.3,2.1,0.8s0.8,1.3,0.8,2.1c0,0.8-0.3,1.5-0.8,2
		c-0.5,0.5-1.2,0.8-2,0.8c-0.4,0-0.8-0.1-1.2-0.2c-0.4-0.2-0.7-0.4-0.9-0.7V37.5z M326.1,35c0.6,0,1-0.2,1.4-0.5
		c0.4-0.4,0.5-0.8,0.5-1.4c0-0.6-0.2-1-0.6-1.4c-0.4-0.4-0.8-0.5-1.4-0.5s-1,0.2-1.4,0.5c-0.4,0.4-0.5,0.8-0.5,1.4
		c0,0.6,0.2,1,0.5,1.4C325,34.9,325.5,35,326.1,35z"/>
	<path d="M332.9,28.8h-1c-0.4,0-0.6,0-0.7-0.1c-0.1-0.1-0.2-0.2-0.2-0.3c0-0.1,0-0.3,0.1-0.3c0.1-0.1,0.2-0.1,0.4-0.1h2
		c0.1,0,0.2,0,0.3,0.1s0.1,0.1,0.1,0.2v6.9h1.9c0.2,0,0.3,0,0.3,0.1c0.1,0.1,0.1,0.2,0.1,0.3c0,0.2,0,0.3-0.1,0.3
		c-0.1,0.1-0.2,0.1-0.4,0.1h-4.5c-0.2,0-0.3,0-0.4-0.1c-0.1-0.1-0.1-0.2-0.1-0.3c0-0.1,0-0.3,0.1-0.3c0.1-0.1,0.2-0.1,0.4-0.1h1.7
		V28.8z"/>
	<path d="M342.3,35.2c-0.3,0.3-0.7,0.5-1.1,0.7c-0.4,0.2-0.8,0.2-1.2,0.2c-0.6,0-1.1-0.2-1.5-0.5c-0.4-0.3-0.6-0.8-0.6-1.3
		c0-0.6,0.2-1.1,0.7-1.5c0.5-0.4,1.2-0.5,2.1-0.5c0.2,0,0.5,0,0.7,0c0.2,0,0.5,0.1,0.7,0.1v0c0-0.5-0.1-0.8-0.3-1
		c-0.2-0.2-0.6-0.3-1.1-0.3c-0.3,0-0.7,0.1-1.1,0.3c-0.4,0.2-0.7,0.3-0.8,0.3c-0.1,0-0.2,0-0.3-0.1s-0.1-0.2-0.1-0.4
		c0-0.2,0.2-0.4,0.7-0.6c0.5-0.2,1-0.3,1.7-0.3c0.7,0,1.3,0.2,1.6,0.6s0.6,0.9,0.6,1.6v2.8h0.3c0.3,0,0.5,0,0.6,0.1
		c0.1,0.1,0.1,0.2,0.1,0.3c0,0.1,0,0.3-0.1,0.3c-0.1,0.1-0.2,0.1-0.4,0.1h-1c-0.1,0-0.2,0-0.3-0.1c-0.1-0.1-0.1-0.2-0.1-0.3
		L342.3,35.2z M342.2,33.2c-0.2-0.1-0.4-0.1-0.7-0.2c-0.2,0-0.4-0.1-0.6-0.1c-0.6,0-1.1,0.1-1.5,0.3c-0.4,0.2-0.5,0.5-0.5,0.9
		c0,0.3,0.1,0.5,0.3,0.7c0.2,0.2,0.5,0.3,0.9,0.3c0.5,0,1-0.1,1.4-0.4c0.4-0.3,0.7-0.6,0.7-0.9V33.2z"/>
	<path d="M348,37.5h0.3c0.3,0,0.5,0,0.6,0.1c0.1,0.1,0.2,0.2,0.2,0.3c0,0.1,0,0.3-0.1,0.3s-0.2,0.1-0.4,0.1h-2.8
		c-0.2,0-0.3,0-0.4-0.1s-0.1-0.2-0.1-0.3c0-0.1,0-0.3,0.1-0.3c0.1-0.1,0.2-0.1,0.4-0.1h1.3l1-2l-2.3-4.4c-0.3,0-0.5,0-0.6-0.1
		c-0.1-0.1-0.2-0.2-0.2-0.3c0-0.1,0-0.2,0.1-0.3c0.1-0.1,0.2-0.1,0.4-0.1h1.7c0.2,0,0.4,0,0.5,0.1c0.1,0.1,0.1,0.2,0.1,0.3
		c0,0.2-0.1,0.3-0.2,0.3c-0.1,0.1-0.3,0.1-0.6,0.1h-0.2l1.7,3.4l1.7-3.4H350c-0.3,0-0.5,0-0.6-0.1c-0.1-0.1-0.2-0.2-0.2-0.3
		c0-0.2,0-0.3,0.1-0.3c0.1-0.1,0.2-0.1,0.5-0.1h1.5c0.2,0,0.3,0,0.4,0.1c0.1,0.1,0.1,0.2,0.1,0.3c0,0.2,0,0.3-0.1,0.3
		c-0.1,0.1-0.3,0.1-0.5,0.1L348,37.5z"/>
	<path d="M359.9,38.2v0.7h-7.8v-0.7H359.9z"/>
	<path d="M361.5,33.4c0,0.6,0.2,1.1,0.6,1.4c0.4,0.3,0.9,0.5,1.5,0.5c0.5,0,1-0.1,1.6-0.4c0.6-0.3,0.9-0.4,1-0.4
		c0.1,0,0.2,0,0.3,0.1c0.1,0.1,0.1,0.2,0.1,0.3c0,0.1,0,0.2-0.1,0.3c-0.1,0.1-0.2,0.2-0.4,0.3c-0.4,0.2-0.8,0.4-1.3,0.5
		c-0.4,0.1-0.9,0.2-1.3,0.2c-0.9,0-1.7-0.3-2.2-0.8c-0.6-0.5-0.8-1.3-0.8-2.1c0-0.9,0.3-1.6,0.9-2.2c0.6-0.6,1.4-0.8,2.3-0.8
		c0.9,0,1.6,0.3,2.2,0.8c0.6,0.5,0.9,1.2,0.9,1.9c0,0.2,0,0.4-0.1,0.5c-0.1,0.1-0.4,0.1-0.8,0.1h-0.1H361.5z M361.5,32.6h4
		c-0.1-0.5-0.3-0.9-0.6-1.2c-0.3-0.3-0.8-0.4-1.3-0.4c-0.5,0-1,0.1-1.4,0.4C361.8,31.7,361.6,32.1,361.5,32.6z"/>
	<path d="M370.5,35.1h2c0.2,0,0.3,0,0.4,0.1c0.1,0.1,0.1,0.2,0.1,0.3c0,0.2,0,0.3-0.1,0.3c-0.1,0.1-0.2,0.1-0.4,0.1h-4
		c-0.2,0-0.3,0-0.4-0.1c-0.1-0.1-0.1-0.2-0.1-0.3c0-0.1,0-0.3,0.1-0.3c0.1-0.1,0.2-0.1,0.4-0.1h1.1v-3.9h-0.4c-0.4,0-0.6,0-0.7-0.1
		c-0.1-0.1-0.1-0.2-0.1-0.3c0-0.1,0-0.2,0.1-0.3c0.1-0.1,0.2-0.1,0.4-0.1h1.4c0.1,0,0.2,0,0.3,0.1c0.1,0,0.1,0.1,0.1,0.2v1
		c0.4-0.5,0.8-0.9,1.2-1.1c0.4-0.2,0.9-0.4,1.4-0.4c0.4,0,0.7,0.1,0.9,0.2c0.2,0.1,0.3,0.3,0.3,0.6c0,0.2-0.1,0.3-0.2,0.4
		c-0.1,0.1-0.2,0.2-0.4,0.2c-0.1,0-0.3-0.1-0.5-0.2c-0.2-0.1-0.4-0.2-0.6-0.2c-0.3,0-0.7,0.1-1,0.3c-0.4,0.2-0.7,0.6-1.2,1.1V35.1z"
		/>
	<path d="M378,35.1h2c0.2,0,0.3,0,0.4,0.1c0.1,0.1,0.1,0.2,0.1,0.3c0,0.2,0,0.3-0.1,0.3c-0.1,0.1-0.2,0.1-0.4,0.1h-4
		c-0.2,0-0.3,0-0.4-0.1s-0.1-0.2-0.1-0.3c0-0.1,0-0.3,0.1-0.3c0.1-0.1,0.2-0.1,0.4-0.1h1.1v-3.9h-0.4c-0.4,0-0.6,0-0.7-0.1
		c-0.1-0.1-0.1-0.2-0.1-0.3c0-0.1,0-0.2,0.1-0.3c0.1-0.1,0.2-0.1,0.4-0.1h1.4c0.1,0,0.2,0,0.3,0.1c0.1,0,0.1,0.1,0.1,0.2v1
		c0.4-0.5,0.8-0.9,1.2-1.1c0.4-0.2,0.9-0.4,1.4-0.4c0.4,0,0.7,0.1,0.9,0.2c0.2,0.1,0.3,0.3,0.3,0.6c0,0.2-0.1,0.3-0.2,0.4
		c-0.1,0.1-0.2,0.2-0.4,0.2c-0.1,0-0.3-0.1-0.5-0.2c-0.2-0.1-0.4-0.2-0.6-0.2c-0.3,0-0.7,0.1-1,0.3c-0.4,0.2-0.7,0.6-1.2,1.1V35.1z"
		/>
	<path d="M389.4,33.1c0,0.9-0.3,1.6-0.9,2.2s-1.4,0.8-2.3,0.8c-1,0-1.7-0.3-2.3-0.8c-0.6-0.6-0.9-1.3-0.9-2.2c0-0.9,0.3-1.6,0.9-2.1
		c0.6-0.6,1.4-0.8,2.3-0.8s1.7,0.3,2.3,0.8C389.1,31.5,389.4,32.2,389.4,33.1z M386.2,35.2c0.6,0,1.1-0.2,1.6-0.6s0.6-0.9,0.6-1.5
		c0-0.6-0.2-1.1-0.6-1.5c-0.4-0.4-0.9-0.6-1.5-0.6s-1.1,0.2-1.5,0.6c-0.4,0.4-0.6,0.9-0.6,1.5c0,0.6,0.2,1.1,0.6,1.5
		C385.1,35,385.6,35.2,386.2,35.2z"/>
	<path d="M393.2,35.1h2c0.2,0,0.3,0,0.4,0.1c0.1,0.1,0.1,0.2,0.1,0.3c0,0.2,0,0.3-0.1,0.3c-0.1,0.1-0.2,0.1-0.4,0.1h-4
		c-0.2,0-0.3,0-0.4-0.1s-0.1-0.2-0.1-0.3c0-0.1,0-0.3,0.1-0.3c0.1-0.1,0.2-0.1,0.4-0.1h1.1v-3.9h-0.4c-0.4,0-0.6,0-0.7-0.1
		c-0.1-0.1-0.1-0.2-0.1-0.3c0-0.1,0-0.2,0.1-0.3c0.1-0.1,0.2-0.1,0.4-0.1h1.4c0.1,0,0.2,0,0.3,0.1c0.1,0,0.1,0.1,0.1,0.2v1
		c0.4-0.5,0.8-0.9,1.2-1.1c0.4-0.2,0.9-0.4,1.4-0.4c0.4,0,0.7,0.1,0.9,0.2c0.2,0.1,0.3,0.3,0.3,0.6c0,0.2-0.1,0.3-0.2,0.4
		c-0.1,0.1-0.2,0.2-0.4,0.2c-0.1,0-0.3-0.1-0.5-0.2c-0.2-0.1-0.4-0.2-0.6-0.2c-0.3,0-0.7,0.1-1,0.3c-0.4,0.2-0.7,0.6-1.2,1.1V35.1z"
		/>
	<path d="M398.6,35.5v-1.1c0-0.2,0-0.3,0.1-0.4c0.1-0.1,0.2-0.1,0.3-0.1c0.2,0,0.3,0.1,0.4,0.3c0.1,0.1,0.1,0.2,0.2,0.3
		c0.2,0.2,0.4,0.4,0.8,0.5c0.3,0.1,0.7,0.2,1.1,0.2c0.4,0,0.8-0.1,1-0.3c0.3-0.2,0.4-0.4,0.4-0.7c0-0.3-0.1-0.5-0.3-0.6
		c-0.2-0.1-0.6-0.2-1.1-0.2h-0.3c-0.8,0-1.5-0.1-1.9-0.4s-0.7-0.7-0.7-1.3c0-0.5,0.2-1,0.6-1.3c0.4-0.3,1-0.4,1.8-0.4
		c0.3,0,0.6,0,1,0.1c0.3,0.1,0.5,0.1,0.5,0.1c0,0,0.1,0,0.3-0.1c0.1-0.1,0.3-0.1,0.4-0.1c0.1,0,0.2,0.1,0.3,0.2
		c0.1,0.1,0.1,0.3,0.1,0.5v0.7c0,0.2,0,0.4-0.1,0.5c-0.1,0.1-0.2,0.1-0.3,0.1c-0.1,0-0.3-0.1-0.5-0.3c-0.1-0.1-0.2-0.3-0.3-0.3
		c-0.2-0.2-0.4-0.3-0.7-0.4c-0.2-0.1-0.5-0.1-0.9-0.1c-0.4,0-0.7,0.1-0.9,0.3c-0.2,0.2-0.4,0.4-0.4,0.6c0,0.3,0.1,0.4,0.4,0.6
		c0.2,0.1,0.8,0.2,1.6,0.2c0.9,0,1.5,0.2,1.9,0.4c0.4,0.3,0.6,0.7,0.6,1.3c0,0.6-0.2,1-0.7,1.3c-0.4,0.3-1,0.5-1.8,0.5
		c-0.2,0-0.5,0-0.8-0.1c-0.3,0-0.6-0.1-1.1-0.2c-0.1,0.1-0.3,0.2-0.4,0.2c-0.1,0-0.2,0.1-0.3,0.1c-0.1,0-0.3-0.1-0.3-0.2
		C398.7,35.8,398.6,35.7,398.6,35.5z"/>
	<path d="M408.8,30.5c-0.1,0-0.2,0-0.2-0.1c0-0.1-0.1-0.2-0.1-0.3l-0.2-2.3v-0.1c0-0.1,0-0.2,0.1-0.2c0-0.1,0.1-0.1,0.2-0.1h0.6
		c0.1,0,0.2,0,0.2,0.1c0,0.1,0.1,0.1,0.1,0.2v0.1l-0.2,2.3c0,0.2,0,0.3-0.1,0.3c0,0.1-0.1,0.1-0.2,0.1H408.8z"/>
	<path d="M415.7,34.2c0-0.1,0.1-0.2,0.1-0.3c0.1,0,0.1-0.1,0.3-0.1h1.3c0.1,0,0.1,0,0.1,0s0.1,0.1,0.1,0.1c0,0,0,0,0,0.1
		c0,0,0,0.1,0,0.1l-1.7,3.5c0,0.1-0.1,0.1-0.1,0.1s-0.1,0.1-0.2,0.1c0,0,0,0,0,0c0,0,0,0-0.1,0l-0.4-0.2c-0.1,0-0.1-0.1-0.1-0.1
		s0-0.1,0-0.1c0,0,0-0.1,0-0.1c0,0,0,0,0-0.1L415.7,34.2z"/>
	<path d="M433.2,30.6c0.2,0,0.3,0,0.4,0.1c0.1,0.1,0.1,0.2,0.1,0.3c0,0.1,0,0.3-0.1,0.3s-0.2,0.1-0.4,0.1h-2.5v2.1
		c0,0.7,0.1,1.1,0.3,1.3s0.5,0.3,0.9,0.3c0.4,0,0.8-0.1,1.3-0.3c0.5-0.2,0.8-0.3,1-0.3c0.1,0,0.2,0,0.3,0.1c0.1,0.1,0.1,0.2,0.1,0.3
		c0,0.1-0.1,0.3-0.2,0.4c-0.1,0.1-0.3,0.2-0.5,0.3c-0.4,0.2-0.8,0.3-1.1,0.4c-0.3,0.1-0.6,0.1-0.9,0.1c-0.5,0-0.9-0.1-1.2-0.2
		c-0.3-0.2-0.6-0.4-0.7-0.7c-0.1-0.1-0.1-0.3-0.2-0.5c0-0.2-0.1-0.5-0.1-0.9v-0.2v-2.1h-1c-0.2,0-0.3,0-0.4-0.1
		c-0.1-0.1-0.1-0.2-0.1-0.3c0-0.2,0.1-0.3,0.2-0.3s0.3-0.1,0.7-0.1h0.7v-1.3V29c0-0.2,0-0.3,0.1-0.4c0.1-0.1,0.2-0.1,0.4-0.1
		c0.2,0,0.3,0.1,0.4,0.2c0.1,0.1,0.1,0.3,0.1,0.7v1.2H433.2z"/>
	<path d="M438.5,35.1h2c0.2,0,0.3,0,0.4,0.1c0.1,0.1,0.1,0.2,0.1,0.3c0,0.2,0,0.3-0.1,0.3c-0.1,0.1-0.2,0.1-0.4,0.1h-4
		c-0.2,0-0.3,0-0.4-0.1s-0.1-0.2-0.1-0.3c0-0.1,0-0.3,0.1-0.3c0.1-0.1,0.2-0.1,0.4-0.1h1.1v-3.9h-0.4c-0.4,0-0.6,0-0.7-0.1
		c-0.1-0.1-0.1-0.2-0.1-0.3c0-0.1,0-0.2,0.1-0.3c0.1-0.1,0.2-0.1,0.4-0.1h1.4c0.1,0,0.2,0,0.3,0.1c0.1,0,0.1,0.1,0.1,0.2v1
		c0.4-0.5,0.8-0.9,1.2-1.1c0.4-0.2,0.9-0.4,1.4-0.4c0.4,0,0.7,0.1,0.9,0.2c0.2,0.1,0.3,0.3,0.3,0.6c0,0.2-0.1,0.3-0.2,0.4
		c-0.1,0.1-0.2,0.2-0.4,0.2c-0.1,0-0.3-0.1-0.5-0.2c-0.2-0.1-0.4-0.2-0.6-0.2c-0.3,0-0.7,0.1-1,0.3c-0.4,0.2-0.7,0.6-1.2,1.1V35.1z"
		/>
	<path d="M445.1,33.7c0,0.5,0.1,0.9,0.3,1.1c0.2,0.2,0.6,0.4,1,0.4c0.4,0,0.8-0.1,1.1-0.4c0.3-0.3,0.5-0.6,0.5-1.1v-2.5h-0.8
		c-0.2,0-0.3,0-0.3-0.1c-0.1-0.1-0.1-0.2-0.1-0.3c0-0.2,0-0.3,0.1-0.3c0.1-0.1,0.2-0.1,0.4-0.1h1.3c0.2,0,0.3,0,0.3,0.1
		c0.1,0.1,0.1,0.2,0.1,0.5v4.2h0.3c0.2,0,0.3,0,0.4,0.1c0.1,0.1,0.1,0.2,0.1,0.3c0,0.1,0,0.3-0.1,0.3s-0.2,0.1-0.4,0.1h-0.9
		c-0.1,0-0.2,0-0.3-0.1s-0.1-0.1-0.1-0.2v-0.4c-0.4,0.3-0.7,0.5-1,0.6c-0.3,0.1-0.6,0.2-0.9,0.2c-0.7,0-1.2-0.2-1.5-0.5
		c-0.3-0.4-0.5-0.9-0.5-1.6v-2.8h-0.1c-0.3,0-0.5,0-0.6-0.1c-0.1-0.1-0.2-0.2-0.2-0.3c0-0.1,0-0.2,0.1-0.3c0.1-0.1,0.2-0.1,0.4-0.1
		h0.9c0.1,0,0.2,0,0.3,0.1c0.1,0.1,0.1,0.2,0.1,0.4V33.7z"/>
	<path d="M452.1,33.4c0,0.6,0.2,1.1,0.6,1.4c0.4,0.3,0.9,0.5,1.5,0.5c0.5,0,1-0.1,1.6-0.4c0.6-0.3,0.9-0.4,1-0.4
		c0.1,0,0.2,0,0.3,0.1s0.1,0.2,0.1,0.3c0,0.1,0,0.2-0.1,0.3c-0.1,0.1-0.2,0.2-0.4,0.3c-0.4,0.2-0.8,0.4-1.3,0.5
		c-0.4,0.1-0.9,0.2-1.3,0.2c-0.9,0-1.7-0.3-2.2-0.8s-0.8-1.3-0.8-2.1c0-0.9,0.3-1.6,0.9-2.2c0.6-0.6,1.4-0.8,2.3-0.8
		c0.9,0,1.6,0.3,2.2,0.8c0.6,0.5,0.9,1.2,0.9,1.9c0,0.2,0,0.4-0.1,0.5c-0.1,0.1-0.4,0.1-0.8,0.1h-0.1H452.1z M452.2,32.6h4
		c-0.1-0.5-0.3-0.9-0.6-1.2s-0.8-0.4-1.3-0.4c-0.5,0-1,0.1-1.4,0.4C452.5,31.7,452.3,32.1,452.2,32.6z"/>
	<path d="M460.5,38.1c0-0.1,0.1-0.3,0.2-0.5c0.1-0.3,0.2-0.5,0.3-0.7c0.3-0.7,0.5-1.3,0.6-1.8c0.1-0.5,0.2-1.1,0.2-1.7
		c0-0.5,0-1-0.2-1.5c-0.1-0.5-0.3-1-0.5-1.5c-0.1-0.3-0.2-0.6-0.4-1c-0.2-0.4-0.3-0.6-0.3-0.7c0-0.1,0-0.1,0.1-0.2
		c0-0.1,0.1-0.1,0.2-0.1c0.1,0,0.3,0.1,0.4,0.2c0.2,0.1,0.3,0.3,0.5,0.6c0.4,0.6,0.8,1.3,1,2c0.2,0.7,0.3,1.4,0.3,2.2
		c0,0.7-0.1,1.4-0.3,2c-0.2,0.6-0.5,1.2-0.8,1.8c-0.3,0.4-0.5,0.7-0.7,0.9c-0.2,0.2-0.4,0.3-0.5,0.3c-0.1,0-0.1,0-0.2-0.1
		C460.5,38.3,460.5,38.2,460.5,38.1z"/>
	<path d="M468.6,34.4c0-0.1,0.1-0.2,0.1-0.3s0.1-0.1,0.3-0.1h1.3c0.1,0,0.1,0,0.1,0c0,0,0.1,0.1,0.1,0.1c0,0,0,0,0,0.1
		c0,0,0,0.1,0,0.1l-1.6,3.3c0,0.1-0.1,0.1-0.1,0.1c0,0-0.1,0-0.1,0c0,0-0.1,0-0.1,0c0,0,0,0,0,0l-0.4-0.1c-0.1,0-0.1-0.1-0.1-0.1
		c0,0,0-0.1,0-0.1c0,0,0,0,0-0.1c0,0,0-0.1,0-0.1L468.6,34.4z M468.1,31.5c0-0.3,0.1-0.6,0.3-0.8c0.2-0.2,0.5-0.3,0.9-0.3
		c0.4,0,0.7,0.1,0.9,0.3c0.2,0.2,0.3,0.5,0.3,0.8c0,0.3-0.1,0.6-0.3,0.8c-0.2,0.2-0.5,0.3-0.9,0.3c-0.4,0-0.7-0.1-0.9-0.3
		C468.2,32.1,468.1,31.9,468.1,31.5z"/>
</g>
<g>
	<path class="st4" d="M143,130.6c-1,0-3.5,0.4-3.5,1.8c0,0.6,0.5,1.1,1.1,1.1c0.2,0,0.4,0,0.6-0.2c0.5-0.4,1.2-0.5,1.9-0.5
		c1.7,0,2.8,1.1,2.8,2.8c0,2.5-2.3,4.6-5,4.6c-1.9,0-3.2-1.3-3.2-3.2c0-0.2,0.1-1.3,0.3-1.7c0-0.1,0.1-0.2,0.1-0.4
		c0-0.5-0.4-1.1-1.1-1.1h-2.8h0c-5.6,0-8.8,0.1-8.8,3.2c0,1,0.4,1.4,0.4,2.1c0,0.7-0.4,1.1-1.4,1.1c-2.8,0-4.6-2.2-4.6-5.3
		c0-4.3,3.5-9.9,7.1-9.9c1,0,1.8,0.7,1.8,1.4c0,0.5-0.4,0.9-0.4,1.4c0,0.5,0.4,1.1,1.1,1.1c1.1,0,1.4-1.4,1.4-2.5
		c0-2.2-2.1-3.5-3.9-3.5c-5.6,0-9.2,7.2-9.2,12c0,4,2.5,7.4,6.7,7.4c1.8,0,3.5-1.1,3.5-3.2c0-1-0.4-1.4-0.4-2.1
		c0-0.5,0.2-1.1,6.7-1.1h1.5c0,0.4-0.1,0.8-0.1,1.1c0,3,2.3,5.3,5.3,5.3c3.7,0,7.1-2.9,7.1-6.7C148,132.6,145.9,130.6,143,130.6z"/>
	<path class="st4" d="M191.2,136.9c0-0.5-0.5-1.1-1.1-1.1c-0.3,0-0.6,0.1-0.8,0.4c-2,2.5-4.2,3.9-6.3,3.9c-0.9,0-1.4-0.6-1.4-1.8
		c0-2.6,2.8-5.7,5.3-5.7c0.6,0,1.3,0.4,1.5,1c0.1,0.4,0.5,0.7,1,0.7c0.6,0,1.1-0.5,1.1-1.1c0-0.1,0-0.2-0.1-0.3
		c-0.5-1.5-1.9-2.5-3.5-2.5c-3.3,0-6.2,2.8-7.2,5.9c-0.7,1.7-3,3.6-5.2,3.6c-2.9,0-5-1.9-5-3.9c0-2.1,1.4-3.5,2.8-3.5
		c0.5,0,1,0.4,1.4,0.4c0.5,0,1.1-0.4,1.1-1.1c0-1.1-1.5-1.4-2.5-1.4c-2.9,0-5,2.7-5,5.7c0,3.5,3.3,6,7.1,6c0,0,0,0,0,0c0,0,0,0,0,0
		c0,0,0,0,0,0c0,0,0,0,0,0c2,0,3.9-0.9,5.3-2.2c0.5,1.3,1.6,2.2,3.2,2.2c2.3,0,4.4-1.1,6.3-2.9c0.2,1,0.7,2.9,1.9,2.9
		c0.6,0,1.1-0.5,1.1-1.1c0-0.2-0.1-0.4-0.2-0.6C191.5,139.8,191.2,138.6,191.2,136.9z"/>
	<path class="st4" d="M238.6,135.9c0-2.6-0.2-5.3-2.8-5.3c-2.2,0-3.3,1.9-4.6,4.2c-1.5,2.7-2.1,3.2-2.4,3.2c0,0-0.6-0.2-1.1-1.7
		c3-4,5.3-9.4,5.3-13.1c0-1.9-0.8-4.2-3.2-4.2c-3.8,0-5,5.9-5,11.7c0,2.1,0.1,3.8,0.5,5.2c-2.2,2.6-4.6,4.4-6.5,4.4
		c-2.9,0-5-1.9-5-3.9c0-2.1,1.4-3.5,2.8-3.5c0.5,0,1,0.4,1.4,0.4c0.5,0,1.1-0.4,1.1-1.1c0-1.1-1.5-1.4-2.5-1.4c-2.8,0-4.8,2.5-5,5.3
		c-2,2.9-3.8,4.2-5.7,4.2c-3,0-6-1.8-6.3-9.3c1.7-0.1,3.7-0.3,5.6-0.3c0.6,0,1.1-0.5,1.1-1.1c0-0.6-0.5-1.1-1.1-1.1
		c-2,0-3.9,0.1-5.7,0.2c0.1-3.7,1.1-6.2,1.1-6.6c0-0.5-0.4-1.1-1.1-1.1c-0.4,0-0.8,0.3-1,0.7c0,0.1-1,3.3-1.1,7.2
		c-1.1,0.1-2.5,0.1-2.5,1.3c0,0.6,0.5,1.1,1.1,1.1c0.5,0,0.9-0.1,1.5-0.2c0.4,8,4.1,11.2,8.5,11.2c0,0,0,0,0,0c0,0,0,0,0,0
		c0,0,0,0,0,0c0,0,0,0,0,0c2.4,0,4.5-1.4,6.3-3.6c1.1,2.2,3.7,3.6,6.5,3.6c0,0,0,0,0,0s0,0,0,0c0,0,0,0,0,0c0,0,0,0,0,0
		c2.7,0,5.1-1.8,7.3-4.1c0.6,1.1,1.5,2,2.7,2c2.1,0,3-2,4.3-4.2c1.5-2.6,2.2-3.2,2.8-3.2c0.2,0,0.7,0.1,0.7,3.2
		c0,2.9,0.1,4.4,0.8,5.8c0.2,0.4,0.6,0.6,1,0.6c0.6,0,1.1-0.5,1.1-1.1c0-0.1,0-0.3-0.1-0.5C238.8,139.9,238.6,138.7,238.6,135.9z
		 M226.9,130.6c0-6.3,1.7-9.6,2.8-9.6c0.5,0,1.1,0.5,1.1,2.1c0,2.5-1.5,6.7-3.8,10.2C226.9,132.5,226.9,131.6,226.9,130.6z"/>
	<path class="st4" d="M328.8,132.7h-0.1c-3.8,0.5-6,2-7.4,4.7c-0.2-1.3-0.3-2.5-0.3-3.6c0-5.3,0.9-10.5,1.1-11.5v-0.2
		c0-0.5-0.4-1.1-1.1-1.1c-0.5,0-0.9,0.4-1,0.8c-0.4,1.4-5.4,18.3-9.9,18.3c-1.7,0-2.5-2.1-2.5-4.6c0-0.6-0.5-1.1-1.1-1.1
		c-0.5,0-0.8,0.3-1,0.7c-0.9,2.8-3.8,4.9-6.1,4.9c-0.9,0-1.4-0.6-1.4-1.8c0-2.6,2.8-5.7,5.3-5.7c0.6,0,1.3,0.4,1.5,1
		c0.1,0.4,0.5,0.7,1,0.7c0.6,0,1.1-0.5,1.1-1.1c0-0.1,0-0.2-0.1-0.3c-0.5-1.5-1.9-2.5-3.5-2.5c-3.3,0-6.2,2.8-7.2,5.9
		c-0.7,1.7-3,3.6-5.2,3.6h-0.1c-0.8,0-1.3-0.1-1.3-4.2c0-2.6-0.2-5.3-2.8-5.3c-2.2,0-3.3,1.9-4.6,4.2c-1.5,2.7-2.1,3.2-2.4,3.2
		c0,0-0.6-0.2-1.1-1.7c3-4,5.3-9.4,5.3-13.1c0-1.9-0.8-4.2-3.2-4.2c-3.8,0-5,5.9-5,11.7c0,2.1,0.1,3.8,0.5,5.2
		c-2.2,2.6-4.6,4.4-6.5,4.4c-3,0-6-1.8-6.3-9.3c1.7-0.1,3.7-0.3,5.6-0.3c0.6,0,1.1-0.5,1.1-1.1c0-0.6-0.5-1.1-1.1-1.1
		c-2,0-3.9,0.1-5.7,0.2c0.1-3.7,1.1-6.2,1.1-6.6c0-0.5-0.4-1.1-1.1-1.1c-0.4,0-0.8,0.3-1,0.7c0,0.1-1,3.3-1.1,7.2
		c-1.1,0.1-2.5,0.1-2.5,1.3c0,0.6,0.5,1.1,1.1,1.1c0.5,0,0.9-0.1,1.5-0.2c0.4,8,4.1,11.2,8.5,11.2c0,0,0,0,0,0c0,0,0,0,0,0
		c0,0,0,0,0,0s0,0,0,0c2.7,0,5.1-1.8,7.3-4.1c0.6,1.1,1.5,2,2.7,2c2.1,0,3-2,4.3-4.2c1.5-2.6,2.2-3.2,2.8-3.2c0.2,0,0.7,0.1,0.7,3.2
		c0,4.2,0.8,6.4,3.5,6.4c0,0,0,0,0,0c0,0,0,0,0,0c0,0,0,0,0,0s0,0,0,0c2,0,3.9-0.9,5.3-2.2c0.5,1.3,1.6,2.2,3.2,2.2
		c2.4,0,4.8-1.4,6.5-3.5c0.5,1.7,1.8,3.5,4.1,3.5c0,0,0,0,0,0c0,0,0,0,0,0s0,0,0,0c0,0,0,0,0,0c4.1,0,6.9-5.8,8.9-10.6
		c0,0.7,0,1.4,0,2.1c0,2.6,0.5,5.8,1.1,7.8c0.1,0.4,0.5,0.7,1,0.7c0.5,0,0.9-0.3,1-0.8c0.7-2.4,1.3-3.8,2.3-4.8
		c0.8-0.8,2.3-1.6,4.6-1.9c0.5-0.1,0.9-0.5,0.9-1.1C329.9,133.1,329.4,132.7,328.8,132.7z M277.9,130.6c0-6.3,1.7-9.6,2.8-9.6
		c0.5,0,1.1,0.5,1.1,2.1c0,2.5-1.5,6.7-3.8,10.2C277.9,132.5,277.9,131.6,277.9,130.6z"/>
	<path class="st4" d="M394.3,139.4c-0.2,0-0.5,0.1-0.7,0.2c-0.7,0.6-1.5,1.5-2.2,2.3c-0.8-0.9-1.7-1.7-2.4-2.5
		c2.4-1.5,4.6-3.5,4.6-6c0-1.9-1.8-2.8-3.2-2.8c-3,0-5.3,2.3-5.3,5.3c0,1,0.3,1.9,0.7,2.8c-2,0.9-4.1,1.5-5.3,1.5
		c-1.4,0-2.5-0.5-2.5-8.5c0-0.6-0.5-1.1-1.1-1.1c-0.6,0-1,0.5-1.1,1c-0.1,3.6-1.8,7.8-4.6,7.8c-1.8,0-2.8-1.1-2.8-3.2
		c0-0.6,0.1-2,0.3-3.3c0-0.1,0-0.1,0-0.2c0-0.5-0.4-1.1-1.1-1.1c-0.4,0-0.8,0.2-1,0.6c-0.5,0.9-1,1.5-2.2,1.5c0,0,0,0,0,0
		c-0.5,0-1.1,0-1.6,0.1c-0.5-2-2.3-3.3-4.4-3.3s-4.9,1-7,2.8c0.3-5.6,1.5-9.8,2.7-13.1c0-0.1,0.1-0.2,0.1-0.4c0-0.5-0.4-1.1-1.1-1.1
		c-0.4,0-0.8,0.3-1,0.7c-1.5,4-2.9,9.4-2.9,16.6c0,0.5,0.5,1.1,1.1,1.1c0.4,0,0.7-0.2,0.9-0.5c1.5-2.4,5.2-4.1,7.3-4.1
		c1.2,0,2,0.6,2.3,1.5c-2.8,0.6-5.5,2.2-5.5,5.3c0,1.6,1.3,2.8,2.8,2.8c3.4,0,4.7-3.7,4.9-6.3c0.5,0,1-0.1,1.5-0.1c0,0,0,0,0,0
		c0.7,0,1.2-0.1,1.8-0.4v0.7c0,2.9,1.8,5.3,5,5.3c2.4,0,4-1.6,5.1-3.4c0.6,2.8,2,4.1,4.1,4.1c0,0,0,0,0,0c0,0,0,0,0,0c0,0,0,0,0,0
		c0,0,0,0,0,0c1.9,0,4.3-0.7,6.5-1.8c1,1.1,2,2.1,3,3.2c-1.7,2.4-3.2,5.1-3.2,7.4c0,1.8,1.4,3.2,3.2,3.2c2.8,0,4.2-2.7,4.2-5
		c0-2.2-0.7-4.1-1.6-5.6c0.8-1,1.6-1.8,2.3-2.4c0.2-0.2,0.4-0.5,0.4-0.8C395.4,139.9,394.9,139.4,394.3,139.4z M358.2,140.1
		c-0.4,0-0.7-0.3-0.7-0.7c0-1.4,1.2-2.5,3.5-3.1C360.6,138.6,359.5,140.1,358.2,140.1z M387.2,135.9c0-1.9,1.3-3.2,3.2-3.2
		c0.7,0,1.1,0.5,1.1,0.7c0,1.2-1.4,2.9-3.8,4.3C387.4,137.1,387.2,136.5,387.2,135.9z M390.1,152.1c-0.7,0-1.1-0.4-1.1-1.1
		c0-1.3,0.9-3.5,2.3-5.5c0.5,1.1,0.9,2.3,0.9,3.8C392.2,150.9,391.2,152.1,390.1,152.1z"/>
	<path class="st4" d="M402.4,122.8c-0.5,0-0.9,0.4-1,0.8c-0.5,2.2-0.7,5.5-0.7,13c0,0.6,0.5,1.1,1.1,1.1c0.6,0,1.1-0.5,1.1-1.1
		c0-7.4,0.3-10.5,0.7-12.5c0-0.1,0-0.1,0-0.2C403.5,123.3,403.1,122.8,402.4,122.8z"/>
	<path class="st4" d="M401.4,140.1c-0.6,0-1.1,0.5-1.1,1.1c0,0.7,1.1,1.1,1.8,1.1c0.6,0,1.1-0.5,1.1-1.1
		C403.1,140.5,402.1,140.1,401.4,140.1z"/>
</g>
</svg>
