<?xml version="1.0" encoding="utf-8"?>
<!-- Generator: Adobe Illustrator 21.0.0, SVG Export Plug-In . SVG Version: 6.00 Build 0)  -->
<svg version="1.1" id="Livello_1" xmlns="http://www.w3.org/2000/svg" xmlns:xlink="http://www.w3.org/1999/xlink" x="0px" y="0px"
	 viewBox="0 0 256 256" style="enable-background:new 0 0 256 256;" xml:space="preserve">
<style type="text/css">
	.st0{fill:#006B81;}
	.st1{fill:#057F99;}
	.st2{fill:#3EBCA6;}
	.st3{fill:#FFFFFF;}
</style>
<path class="st0" d="M130.9,136.2c0,23.1,1.2,67.1,0,89.7c-0.2,16.3,29.3,8,46.4-15.1c18.3-13.6,23-74.4,14.4-74.2
	C172.2,133,147.4,133,130.9,136.2L130.9,136.2z"/>
<path class="st1" d="M63.6,136.9c-12.3,34.4,1.5,66.4,19.5,80.4c14.1,12.8,14.8,16.2,31.9,17.3c23.2-18.9,16-19.6,14.9-47.2v-50.5
	C106.6,132.8,86.5,132.4,63.6,136.9L63.6,136.9z"/>
<path class="st1" d="M196.6,143c0.6,6.3,0.9,15.8-40.3,2.7c-8.8-2.8-23,3.3-26.4,4c-7.8,1.8-10.7-35.1-10.7-41.7
	c0-13.2-18.9-24.1-0.3-24.1c9.3,0,32.5,1.5,48.7,13.6S196,136.7,196.6,143L196.6,143z"/>
<path class="st2" d="M127,150.1c0.2,4.7-16.1,4.8-28.5,5.4c-18.6,0.8-42.8,9-43,7.9c-1.9-10.6,10.5-51,33.9-66.3
	c16.3-10.6,29.3-15.5,29.6-10.5c0.5,7.4,1.8,17.7,2,21.8C121.2,111.8,125.4,138.9,127,150.1L127,150.1z"/>
<path d="M126.9,80.4L126.9,80.4c-40.3,0-73.1,36-73.1,80.3c0,38.4,24.9,71.5,59.2,78.8c0.8,0.2,1.7,0,2.3-0.5l11.2-8.8
	c0.2,0,0.4-0.1,0.6-0.1l9.3,9.1c0.5,0.5,1.2,0.8,2,0.8c0.2,0,0.3,0,0.5,0c16.9-3.1,32.4-12.7,43.6-27.1c11.3-14.5,17.5-33,17.5-52.1
	C199.9,116.4,167.2,80.4,126.9,80.4z M112.9,233.6c-31-7.3-53.4-37.7-53.4-73c0-37.2,24.7-68.1,56.9-73.7c0,0.1,0,0.1,0,0.2
	c19,112.7,11.7,133.1,9.4,136.5c-0.1,0.1-0.3,0.2-0.4,0.3l-0.4,0.3c-0.7,0.2-1.3,0.7-1.7,1.4L112.9,233.6z M178,209.3
	c-10,12.9-23.8,21.6-38.8,24.7l-8-7.8c7.4-13.5,4.3-61.6-8.9-140c1.5-0.1,3-0.2,4.5-0.2c0,0,0,0,0.1,0c37.2,0,67.4,33.5,67.4,74.6
	C194.3,178.5,188.5,195.8,178,209.3z"/>
<g>
	<path d="M46.5,31.4c9.9-5.6,19.3-6.7,28-3.2c9.7,3.9,17.5,12.7,23.4,22C88.2,56,82,64.9,82,74.9c0,4.5,1.3,8.7,3.5,12.6l5.8,3
		c10.5-6.5,22.6-10.2,35.5-10.2c0,0,0,0,0.1,0c11.9,0,23.1,3.2,33,8.7l5-3.1c1.7-3.5,2.7-7.2,2.7-11.1c0-10.6-6.9-19.9-17.6-25.7
		c6-9.9,14.2-19.6,24.5-23.8c8.7-3.5,18.2-2.4,28,3.2c1.7,1,3.9,0.4,4.9-1.3c1-1.7,0.4-3.9-1.3-4.9c-11.9-6.8-23.4-8-34.3-3.6
		c-10.5,4.2-20.1,13.5-28.5,27.5c-5.6-2-11.9-3.2-18.6-3.2l0,0c-7.4,0-14.3,1.4-20.4,3.8c-8-12.8-17.1-21.3-27.1-25.3
		c-10.9-4.4-22.4-3.1-34.3,3.6c-1.7,1-2.3,3.2-1.3,4.9C42.5,31.7,44.7,32.3,46.5,31.4z"/>
	<path d="M214.1,136.2c9.4,2.6,15.8,10,19.6,22.7c0.5,1.8,2.4,2.8,4.2,2.2c1.8-0.5,2.8-2.4,2.2-4.2c-4.5-14.8-12.7-24-24.3-27.2
		c-6.7-1.9-14-1.5-21.5,0.1c0.8,2.1,1.5,4.2,2.1,6.4C203.1,134.8,209.1,134.8,214.1,136.2z"/>
	<path d="M178.9,104.3c1.6,1.7,3.1,3.5,4.5,5.4c12.2-5,22.6-6.5,30.7-4.2c9.4,2.6,15.8,10,19.6,22.7c0.5,1.8,2.4,2.8,4.2,2.2
		c1.8-0.5,2.8-2.4,2.2-4.2c-4.5-14.8-12.7-24-24.3-27.2C204.6,95.9,191.5,98.9,178.9,104.3z"/>
	<path d="M12.9,124.1c1.8,0.5,3.7-0.5,4.2-2.2c3.8-12.7,10.3-20.1,19.6-22.7c9.4-2.6,21.8-0.2,36.6,6.8c1.5-1.8,3.1-3.5,4.8-5.2
		c-14.4-7-30-11.7-43.1-8C23.4,96,15.2,105.2,10.7,120C10.1,121.7,11.1,123.6,12.9,124.1z"/>
	<path d="M9.4,159.5c1.8,0.5,3.7-0.5,4.2-2.2c3.8-12.7,10.3-20.1,19.6-22.7c6.6-1.8,14.7-1.2,24,1.8c0.6-2.2,1.3-4.3,2.1-6.4
		c-9.7-3.1-19.4-4.3-27.9-1.9c-11.6,3.2-19.8,12.4-24.3,27.2C6.6,157,7.6,158.9,9.4,159.5z"/>
	<path d="M248.2,192.4c-4.5-14.8-12.7-24-24.3-27.2c-7.5-2.1-15.8-1.4-24.2,0.8c-0.1,2.4-0.4,4.8-0.7,7.2c9-2.7,16.8-3.3,23.1-1.5
		c9.4,2.6,15.8,10,19.6,22.7c0.5,1.8,2.4,2.8,4.2,2.2C247.7,196.1,248.7,194.2,248.2,192.4z"/>
	<path d="M53.8,161.1c-8.4-2.2-16.6-2.8-24-0.7c-11.6,3.2-19.8,12.4-24.3,27.2c-0.5,1.8,0.5,3.7,2.2,4.2c1.8,0.5,3.7-0.5,4.2-2.2
		c3.8-12.7,10.3-20.1,19.6-22.7c6.2-1.7,13.8-1.3,22.5,1.3C53.9,165.8,53.8,163.5,53.8,161.1z"/>
</g>
<g>
	<path class="st3" d="M87.6,197.6c-2.2,0-3.7-1.6-3.7-3.7v-0.1v-0.1c1.1-10.1,1.6-19.9,1.6-28.9v-10.2c0-1.5,0.7-2.8,2-3.6
		c-0.1-2.2-0.3-3.4-0.5-4c-0.3-1-0.9-1.8-1.7-2.7c-1.3-1.2-3.1-1.8-5.4-1.8c-0.5,0-1,0-1.5,0.1h-0.1c-0.3,0-1.2,0.2-2.9,1.7
		c-1.6,1.4-2.7,2.7-3.5,3.7l-0.2,0.3l-0.3,0.2c-0.7,0.5-1.5,0.8-2.3,0.8l0,0c-2.9,0-3.6-3-3.7-4.3v-0.3v-0.3
		c0.1-2.1,1.3-4.6,3.5-7.6c2.1-2.9,5.1-5.1,8.7-6.7c5.4-2.3,10.7-3.4,15.9-3.4c2.3,0,4.3,0.2,6.1,0.5c1.1,0.2,2.1,0.8,3.2,2
		c0.5-1.5,1.8-2.5,3.5-2.5h7.6c2.2,0,3.7,1.6,3.7,3.7v12.2c0,2.2-1.6,3.7-3.7,3.7h-7.6c-2.2,0-3.7-1.6-3.7-3.7v-0.2
		c-0.8,0.4-1.6,1.1-2.2,2.1c-0.1,0.3-0.4,1.6-0.5,6.1c1.3,0.7,2.2,2,2.2,3.7v10.2c0,4,0.1,8.5,0.4,13.3c0.2,4.8,0.5,8.7,0.8,11.4
		l0.5,4.4v0.1c0,2.2-1.6,3.7-3.7,3.7H87.6V197.6z"/>
	<path d="M113.8,129.7c0.6,0,0.9,0.3,0.9,0.9v12.2c0,0.6-0.3,0.9-0.9,0.9h-7.6c-0.6,0-0.9-0.3-0.9-0.9v-2c-0.9-0.7-1.7-1.1-2.5-1.1
		c-0.2,0-0.5,0-0.7,0.1c-1.7,0.5-3.2,1.7-4.4,3.6c-0.6,1-0.9,4.2-0.9,9.6l1.2,0.3c0.7,0.1,1,0.5,1,1.3v10.2c0,4.1,0.1,8.6,0.4,13.5
		c0.2,4.9,0.5,8.7,0.8,11.6l0.4,4.2c0,0.6-0.3,0.9-0.9,0.9H87.6c-0.6,0-0.9-0.3-0.9-0.9c1.1-10.3,1.6-20,1.6-29.2v-10.2
		c0-0.7,0.3-1.1,1-1.3l1-0.3c0-3.1-0.2-5.4-0.7-6.8c-0.4-1.5-1.3-2.8-2.5-3.9c-1.9-1.7-4.3-2.6-7.4-2.6c-0.6,0-1.2,0-1.8,0.1
		c-1.4,0.1-2.9,0.9-4.6,2.5s-3,2.9-3.9,4.1c-0.2,0.2-0.4,0.2-0.5,0.2c-0.5,0-0.8-0.6-0.9-1.8c0.1-1.6,1.1-3.6,2.9-6
		c1.8-2.5,4.4-4.4,7.6-5.7c5-2.1,10-3.2,14.8-3.2c2.1,0,4,0.1,5.5,0.4c0.5,0.1,1.1,0.6,1.9,1.4c0.8,0.8,1.4,1.2,1.9,1.2
		c0.9,0,1.7-0.4,2.6-1.3v-0.9c0-0.6,0.3-0.9,0.9-0.9h7.7 M113.8,124h-7.6c-1.6,0-3,0.5-4.1,1.3c-0.6-0.3-1.3-0.6-2.1-0.8l0,0l0,0
		c-1.9-0.4-4.1-0.5-6.6-0.5c-5.6,0-11.3,1.2-17.1,3.6c-4.1,1.8-7.5,4.3-9.9,7.6c-2.6,3.5-3.9,6.3-4,9.1v0.5l0.1,0.5
		c0.8,6.5,5.6,6.9,6.6,6.9s2.5-0.2,4-1.4l0.7-0.5l0.5-0.7c0.5-0.6,1.4-1.7,3.1-3.3c0.7-0.7,1.2-0.9,1.4-1c0.4,0,0.8-0.1,1.2-0.1
		c2.1,0,3,0.6,3.5,1.1s0.8,0.9,0.9,1.4c0.1,0.2,0.2,0.8,0.3,1.9c-1.2,1.3-1.9,3-1.9,4.9v10.2c0,9-0.5,18.6-1.6,28.6v0.3v0.3
		c0,3.7,2.8,6.6,6.6,6.6H100c3.7,0,6.6-2.8,6.6-6.6v-0.3v-0.3l-0.4-4.2c-0.3-2.7-0.5-6.5-0.8-11.3c-0.2-4.8-0.4-9.2-0.4-13.2v-10.2
		c0-2.1-0.8-3.9-2.1-5.1c0-0.4,0-0.7,0-1c1,0.6,2.2,1,3.5,1h7.6c3.7,0,6.6-2.8,6.6-6.6v-12.2C120.4,126.8,117.5,124,113.8,124
		L113.8,124z"/>
</g>
<g>
	<path class="st3" d="M155.7,198.4c-0.9,0-1.7-0.1-2.6-0.3c-3.4-0.7-6-2.4-7.8-5.2c-1.9-2.8-2.5-5.9-1.8-9.2c0.6-2.9,2-5.2,4.1-7.1
		l3.7-18.9c-0.9-0.9-1.7-1.8-2.3-2.7c-2.7-4.1-3.6-8.5-2.6-13.3s3.5-8.5,7.6-11.2c1.7-1.2,3.8-2,6.1-2.5l0.6-0.4l1.3,0.3
		c0.9,0.2,1.6,0.7,2.1,1.4s0.6,1.6,0.5,2.4l-1.5,7.2l-0.6,3.4c0.4,0.5,1,0.7,1.7,0.9c0.3,0.1,0.5,0.1,0.7,0.1c0.4,0,0.8-0.1,1.1-0.2
		l0.7-3.4l0.8-3.5l0.6-3.6c0.3-1.6,1.7-2.7,3.3-2.7h0.3l1,0.2l0.5,0.3c2,1.3,3.8,3.1,5.1,5.2c2.7,4,3.6,8.5,2.7,13.2
		c-0.9,4.8-3.5,8.5-7.5,11.2c-0.8,0.5-1.9,1.1-3.3,1.6l-3.7,18.8c1.3,2.5,1.6,5.3,1.1,8.1c-0.7,3.3-2.4,5.9-5.2,7.8
		C160.3,197.8,158.1,198.4,155.7,198.4z M155.4,185c-0.1,0-0.2,0-0.4,0.1s-0.3,0.3-0.4,0.6c-0.1,0.4,0,0.7,0.2,0.9
		c0.2,0.3,0.3,0.4,0.7,0.4c0.1,0,0.2,0,0.3,0s0.3,0,0.5-0.2c0.3-0.2,0.4-0.3,0.4-0.7c0.1-0.3,0-0.5-0.2-0.8
		c-0.2-0.2-0.3-0.4-0.8-0.5C155.5,185,155.4,185,155.4,185z"/>
	<path d="M161.4,130.7h0.2c0.2,0.1,0.3,0.2,0.3,0.4l-0.8,3.7l-0.7,3.5l-0.8,4.6c0.9,1.7,2.3,2.7,4.1,3.1c0.4,0.1,0.9,0.1,1.3,0.1
		c1.3,0,2.6-0.4,3.7-1.3l0.9-4.5l0.8-3.6l0.6-3.6c0-0.2,0.2-0.4,0.6-0.4l0,0h0.2c1.7,1.1,3.1,2.6,4.3,4.4c2.3,3.4,3,7.1,2.2,11.1
		s-2.9,7.1-6.3,9.4c-0.9,0.6-2.3,1.2-4.2,1.8l-4.3,21.4c1.4,2.2,1.8,4.6,1.3,7.1s-1.8,4.5-4,5.9c-1.6,1-3.3,1.6-5.1,1.6
		c-0.7,0-1.4-0.1-2-0.2c-2.6-0.5-4.6-1.9-6-4c-1.4-2.2-1.9-4.5-1.4-7s1.8-4.6,3.9-6.1l4.3-21.4c-1.3-1.1-2.3-2.2-3-3.3
		c-2.3-3.4-3-7.1-2.2-11.2c0.8-4,2.9-7.2,6.4-9.4C157.3,131.8,159.1,131.1,161.4,130.7L161.4,130.7 M155.6,190
		c0.7,0,1.4-0.2,2.1-0.7c0.9-0.6,1.4-1.4,1.7-2.5c0.2-1.1,0-2-0.6-2.9s-1.4-1.5-2.5-1.7c-0.3-0.1-0.6-0.1-0.9-0.1
		c-0.7,0-1.4,0.2-2,0.6c-0.9,0.6-1.4,1.4-1.6,2.5s0,2.1,0.6,3s1.4,1.4,2.5,1.7C155.1,190,155.3,190,155.6,190 M160.2,124.6l-1.2,0.8
		c-2.5,0.6-4.7,1.5-6.6,2.7c-4.7,3.1-7.7,7.5-8.8,13s-0.1,10.7,3,15.4c0.5,0.7,1,1.4,1.6,2l-3.3,16.5c-2.2,2.2-3.7,4.9-4.3,8
		c-0.8,4,0,7.9,2.2,11.3c2.3,3.4,5.6,5.6,9.7,6.5c1.1,0.2,2.1,0.3,3.2,0.3c2.9,0,5.7-0.8,8.2-2.5c3.4-2.3,5.6-5.6,6.4-9.6
		c0.6-3.1,0.3-6.2-0.9-9.1l3.3-16.4c0.9-0.4,1.7-0.8,2.4-1.3c4.7-3.1,7.7-7.5,8.7-13.1c1.1-5.5,0-10.7-3.1-15.4
		c-1.6-2.4-3.6-4.4-6-6l-0.9-0.6l-1.1-0.2h-0.2l-0.6-0.1h-0.6c-1.7,0-3.3,0.7-4.4,1.8c-0.7-1.8-2.3-3.3-4.5-3.7h-0.2L160.2,124.6
		L160.2,124.6z"/>
</g>
</svg>
